<?xml version="1.0" standalone="no"?>
<!DOCTYPE svg PUBLIC "-//W3C//DTD SVG 1.1//EN" "http://www.w3.org/Graphics/SVG/1.1/DTD/svg11.dtd" >
<svg xmlns="http://www.w3.org/2000/svg" xmlns:xlink="http://www.w3.org/1999/xlink" version="1.1">
<metadata>
Created by FontForge 20161003 at Wed Mar 15 10:16:54 2017
 By www-data
</metadata>
<defs>
<font id="beep" horiz-adv-x="448" >
  <font-face 
    font-family="beep"
    font-weight="400"
    font-stretch="normal"
    units-per-em="448"
    panose-1="2 0 5 3 0 0 0 0 0 0"
    ascent="384"
    descent="-64"
    bbox="0 -64.8235 504 384.375"
    underline-thickness="0"
    underline-position="0"
    unicode-range="U+21B8-F489"
  />
<missing-glyph 
 />
    <glyph glyph-name=".notdef" 
 />
    <glyph glyph-name=".notdef" 
 />
    <glyph glyph-name=".null" horiz-adv-x="0" 
 />
    <glyph glyph-name="nonmarkingreturn" horiz-adv-x="149" 
 />
    <glyph glyph-name="uniF000" unicode="&#xf000;" horiz-adv-x="0" 
d="M0 384l448 -448h-448v448z" />
    <glyph glyph-name="uniE000" unicode="&#xe000;" 
d="M140 300l308 84v-28v-56v-238q0 -29 -28.5 -49.5t-69.5 -20.5t-69.5 20.5t-28.5 49.5t28.5 49.5t69.5 20.5q22 0 42 -7v144l-196 -53v-210q0 -29 -28.5 -49.5t-69.5 -20.5t-69.5 20.5t-28.5 49.5t28.5 49.5t69.5 20.5q22 0 42 -7v147v84z" />
    <glyph glyph-name="uniE001" unicode="&#xe001;" 
d="M84 131v-194q7 -1 14 -1h14v196h-14q-7 0 -14 -1zM336 132v-196h14q7 0 14 1v194q-7 1 -14 1h-14zM448 160q0 93 -65.5 158.5t-158.5 65.5t-158.5 -65.5t-65.5 -158.5q0 -40 13 -77q-13 -22 -13 -49q0 -29 15.5 -53t40.5 -36v178q-13 -7 -24 -17q-4 20 -4 40
q0 81 57.5 138.5t138.5 57.5t138.5 -57.5t57.5 -138.5q0 -20 -4 -40q-11 10 -24 17v-178q25 12 40.5 36t15.5 53q0 27 -13 49q13 37 13 77z" />
    <glyph glyph-name="uniE002" unicode="&#xe002;" 
d="M429 314q-97 14 -205 14t-205 -14q-19 -73 -19 -154t19 -154q97 -14 205 -14t205 14q19 73 19 154t-19 154zM168 76v168l140 -84z" />
    <glyph glyph-name="uniE003" unicode="&#xe003;" 
d="M0 328v-336h448v336h-448zM84 20h-56v56h56v-56zM84 132h-56v56h56v-56zM84 244h-56v56h56v-56zM336 20h-224v280h224v-280zM420 20h-56v56h56v-56zM420 132h-56v56h56v-56zM420 244h-56v56h56v-56zM168 244v-168l112 84z" />
    <glyph glyph-name="uniE004" unicode="&#xe004;" 
d="M168 258q0 -29 20.5 -49.5t49.5 -20.5t49.5 20.5t20.5 49.5t-20.5 49.5t-49.5 20.5t-49.5 -20.5t-20.5 -49.5zM0 258q0 -29 20.5 -49.5t49.5 -20.5t49.5 20.5t20.5 49.5t-20.5 49.5t-49.5 20.5t-49.5 -20.5t-20.5 -49.5zM336 118v42q0 12 -8 20t-20 8h-70h-168h-42
q-12 0 -20 -8t-8 -20v-140q0 -12 8 -20t20 -8h280q12 0 20 8t8 20v42l112 -70v196zM280 48h-224v84h224v-84z" />
    <glyph glyph-name="uniE005" unicode="&#xe005;" 
d="M133 118q0 -38 26.5 -64.5t64.5 -26.5t64.5 26.5t26.5 64.5t-26.5 64.5t-64.5 26.5t-64.5 -26.5t-26.5 -64.5zM420 272h-98q-5 19 -8 28t-12 18.5t-22 9.5h-112q-19 0 -27 -14t-15 -42h-98q-12 0 -20 -8t-8 -20v-252q0 -12 8 -20t20 -8h392q12 0 20 8t8 20v252
q0 12 -8 20t-20 8zM224 -6q-51 0 -87.5 36.5t-36.5 87.5t36.5 87.5t87.5 36.5t87.5 -36.5t36.5 -87.5t-36.5 -87.5t-87.5 -36.5zM420 188h-56v28h56v-28z" />
    <glyph glyph-name="uniE007" unicode="&#xe007;" 
d="M392 300h-336v-280h336v280zM448 356v-392h-448v392h448zM364 48h-280v56l84 140l115 -140l81 56v-28v-84zM280 230q0 -17 12.5 -29.5t29.5 -12.5t29.5 12.5t12.5 29.5t-12.5 29.5t-29.5 12.5t-29.5 -12.5t-12.5 -29.5z" />
    <glyph glyph-name="uniE006" unicode="&#xe006;" 
d="M448 126l-224 174l-224 -174v71l224 173l224 -173v-71zM392 132v-168h-112v112h-112v-112h-112v168l168 126z" />
    <glyph glyph-name="uniE008" unicode="&#xe008;" 
d="M448 196q0 66 -17 113t-41 47h1h-36q-10 -7 -27.5 -18.5t-72 -35.5t-108.5 -35q-6 -33 -6 -71t6 -70q54 -12 106 -34.5t77 -38t25 -17.5h36h-1q24 1 41 47.5t17 112.5zM378.5 61q-4.5 0 -10.5 6q-9 10 -16 28q-16 42 -16 101.5t16 100.5q7 19 16 28q6 7 10.5 7t10.5 -7
q9 -9 16 -28q15 -41 15 -100.5t-15 -101.5q-7 -18 -16 -28q-6 -6 -10.5 -6zM110 196q0 34 5 65q-33 -4 -61 -4h-30l-24 -42v-38l24 -42h30q28 0 61 -4q-5 31 -5 65zM161 103l-56 11l36 -141q1 -5 6 -7.5t10 -0.5l52 21q12 5 6 17zM378.5 144q-1.5 0 -4.5 3t-6 10
q-6 16 -6 39t6 39q3 7 6 11q3 2 4.5 2t4.5 -2q3 -4 5 -11q7 -16 7 -39t-7 -39q-2 -7 -5 -10t-4.5 -3z" />
    <glyph glyph-name="uniE009" unicode="&#xe009;" 
d="M428 299q-11 3 -21.5 -2.5t-13.5 -16.5l-2 -8h-261l-4 31q-2 11 -9.5 18t-18.5 7h-70q-12 0 -20 -8t-8 -20t8 -20t20 -8h45l25 -199q2 -11 9.5 -18t18.5 -7h238q21 0 27 20l56 196q3 11 -2.5 21.5t-16.5 13.5zM224 160v28h56v-28h-56zM280 132v-28h-56v28h56zM224 216v28
h56v-28h-56zM133 244h63v-28h-59zM140 188h56v-28h-52zM147 132h49v-28h-45zM343 104h-35v28h43zM359 160h-51v28h59zM375 216h-67v28h75zM112 -22q0 -17 12.5 -29.5t29.5 -12.5t29.5 12.5t12.5 29.5t-12.5 29.5t-29.5 12.5t-29.5 -12.5t-12.5 -29.5zM280 -22
q0 -17 12.5 -29.5t29.5 -12.5t29.5 12.5t12.5 29.5t-12.5 29.5t-29.5 12.5t-29.5 -12.5t-12.5 -29.5z" />
    <glyph glyph-name="uniE00A" unicode="&#xe00a;" 
d="M406 384h-126q-18 0 -39 -8.5t-33 -21.5l-196 -195q-12 -13 -12 -30.5t12 -29.5l151 -151q12 -12 29.5 -12t30.5 12l195 196q13 12 21.5 33t8.5 39v126q0 17 -12.5 29.5t-29.5 12.5zM350 244q-17 0 -29.5 12.5t-12.5 29.5t12.5 29.5t29.5 12.5t29.5 -12.5t12.5 -29.5
t-12.5 -29.5t-29.5 -12.5z" />
    <glyph glyph-name="uniE00C" unicode="&#xe00c;" 
d="M112 356h224v-56h-224v56zM420 272h-392q-12 0 -20 -8t-8 -20v-140q0 -12 8 -20t20 -8h84v-112h224v112h84q12 0 20 8t8 20v140q0 12 -8 20t-20 8zM308 -8h-168v140h168v-140zM426 230q0 -8 -6 -14t-14 -6t-14 6t-6 14t6 14t14 6t14 -6t6 -14z" />
    <glyph glyph-name="uniE00E" unicode="&#xe00e;" 
d="M196 328v7q0 9 -6 15t-15 6h-70q-9 0 -15 -6t-6 -15v-7h-84v-56h84v-7q0 -9 6 -15t15 -6h70q9 0 15 6t6 15v7h252v56h-252zM112 272v56h56v-56h-56zM364 195q0 9 -6 15t-15 6h-70q-9 0 -15 -6t-6 -15v-7h-252v-56h252v-7q0 -9 6 -15t15 -6h70q9 0 15 6t6 15v7h84v56h-84
v7zM280 132v56h56v-56h-56zM196 55q0 9 -6 15t-15 6h-70q-9 0 -15 -6t-6 -15v-7h-84v-56h84v-7q0 -9 6 -15t15 -6h70q9 0 15 6t6 15v7h252v56h-252v7zM112 -8v56h56v-56h-56z" />
    <glyph glyph-name="uniE00F" unicode="&#xe00f;" 
d="M392 188h7q9 0 15 6t6 15v70q0 9 -6 15t-15 6h-7v84h-56v-84h-7q-9 0 -15 -6t-6 -15v-70q0 -9 6 -15t15 -6h7v-252h56v252zM336 272h56v-56h-56v56zM259 20q9 0 15 6t6 15v70q0 9 -6 15t-15 6h-7v252h-56v-252h-7q-9 0 -15 -6t-6 -15v-70q0 -9 6 -15t15 -6h7v-84h56v84h7
zM196 104h56v-56h-56v56zM119 188q9 0 15 6t6 15v70q0 9 -6 15t-15 6h-7v84h-56v-84h-7q-9 0 -15 -6t-6 -15v-70q0 -9 6 -15t15 -6h7v-252h56v252h7zM56 272h56v-56h-56v56z" />
    <glyph glyph-name="uniE00D" unicode="&#xe00d;" 
d="M417 351l-2 2q-31 31 -75 31t-74 -31l-96 -95q-31 -31 -31 -75t31 -75l2 -2q5 -5 11 -9l35 35q-7 4 -12 8l-2 2q-16 17 -16 41t16 40l96 96q17 17 40.5 17t40.5 -17l2 -2q17 -17 17 -40.5t-17 -40.5l-43 -43q11 -28 10 -58l67 67q31 30 31 74t-31 75zM276 214q-5 5 -11 9
l-35 -35q7 -4 12 -8l2 -2q16 -17 16 -41t-16 -40l-96 -96q-17 -17 -40.5 -17t-40.5 17l-2 2q-17 17 -17 40.5t17 40.5l43 43q-11 28 -10 58l-67 -67q-31 -30 -31 -74t31 -75l2 -2q31 -31 75 -31t74 31l96 95q31 31 31 75t-31 75z" />
    <glyph glyph-name="uniE010" unicode="&#xe010;" 
d="M392 160h-70l-98 -98l-98 98h-70l-56 -112v-28h448v28zM0 -8h448v-28h-448v28zM252 244v112h-56v-112h-98l126 -126l126 126h-98z" />
    <glyph glyph-name="uniE011" unicode="&#xe011;" 
d="M28 300h392v-84h-392v84zM28 188h392v-84h-392v84zM28 76h392v-84h-392v84z" />
    <glyph glyph-name="uniE012" unicode="&#xe012;" 
d="M448 227q0 -57 -42 -95l-140 -140q-28 -28 -42 -28t-42 28l-140 140q-42 38 -42 95q0 54 37.5 91.5t91.5 37.5q57 0 95 -42q38 42 95 42q54 0 91.5 -37.5t37.5 -91.5z" />
    <glyph glyph-name="uniE013" unicode="&#xe013;" 
d="M448 210l-155 23l-69 140l-69 -140l-155 -23l112 -109l-26 -154l138 73l138 -73l-26 154z" />
    <glyph glyph-name="uniE014" unicode="&#xe014;" 
d="M448 210l-155 23l-69 140l-69 -140l-155 -23l112 -109l-26 -154l138 73l138 -73l-26 154zM224 54v250l49 -99l109 -16l-79 -77l19 -109z" />
    <glyph glyph-name="uniE015" unicode="&#xe015;" 
d="M448 227q0 54 -37.5 91.5t-91.5 37.5q-57 0 -95 -42q-38 42 -95 42q-54 0 -91.5 -37.5t-37.5 -91.5q0 -57 42 -95l140 -140q28 -28 42 -28t42 28l140 140q42 38 42 95zM368 173l-142 -141q-1 -2 -2 -3q-1 2 -2 3l-142 141q-24 22 -24 54q0 30 21.5 51.5t51.5 21.5
q32 0 54 -24l41 -46l41 46q22 24 54 24q30 0 51.5 -21.5t21.5 -51.5q0 -32 -24 -54z" />
    <glyph glyph-name="uniE016" unicode="&#xe016;" 
d="M224 384q-93 0 -158.5 -65.5t-65.5 -158.5t65.5 -158.5t158.5 -65.5t158.5 65.5t65.5 158.5t-65.5 158.5t-158.5 65.5zM196 300h56v-56h-56v56zM280 20h-112v28h28v112h-28v28h84v-140h28v-28z" />
    <glyph glyph-name="uniE017" unicode="&#xe017;" 
d="M224 384q-93 0 -158.5 -65.5t-65.5 -158.5t65.5 -158.5t158.5 -65.5t158.5 65.5t65.5 158.5t-65.5 158.5t-158.5 65.5zM224 -22q-75 0 -128.5 53.5t-53.5 128.5t53.5 128.5t128.5 53.5t128.5 -53.5t53.5 -128.5t-53.5 -128.5t-128.5 -53.5zM196 272h56v-56h-56v56z
M280 48h-112v28h28v84h-28v28h84v-112h28v-28z" />
    <glyph glyph-name="uniE018" unicode="&#xe018;" 
d="M378 76q-30 0 -50 -21l-189 94q1 5 1 11t-1 11l189 94q20 -21 50 -21q29 0 49.5 20.5t20.5 49.5t-20.5 49.5t-49.5 20.5t-49.5 -20.5t-20.5 -49.5q0 -6 1 -11l-189 -94q-20 21 -50 21q-29 0 -49.5 -20.5t-20.5 -49.5t20.5 -49.5t49.5 -20.5q30 0 50 21l189 -94
q-1 -5 -1 -11q0 -29 20.5 -49.5t49.5 -20.5t49.5 20.5t20.5 49.5t-20.5 49.5t-49.5 20.5z" />
    <glyph glyph-name="uniE01A" unicode="&#xe01a;" 
d="M84 328l280 -168l-280 -168v336z" />
    <glyph glyph-name="uniE01B" unicode="&#xe01b;" 
d="M56 328h140v-336h-140v336zM252 328h140v-336h-140v336z" />
    <glyph glyph-name="uniE01C" unicode="&#xe01c;" 
d="M56 328h336v-336h-336v336z" />
    <glyph glyph-name="uniE01D" unicode="&#xe01d;" 
d="M252 314v-140l140 140v-308l-140 140v-140l-154 154z" />
    <glyph glyph-name="uniE01E" unicode="&#xe01e;" 
d="M224 6v140l-140 -140v308l140 -140v140l154 -154z" />
    <glyph glyph-name="uniE01F" unicode="&#xe01f;" 
d="M56 -8v336h56v-154l140 140v-140l140 140v-308l-140 140v-140l-140 140v-154h-56z" />
    <glyph glyph-name="uniE020" unicode="&#xe020;" 
d="M392 328v-336h-56v154l-140 -140v140l-140 -140v308l140 -140v140l140 -140v154h56z" />
    <glyph glyph-name="uniE021" unicode="&#xe021;" 
d="M112 -8v336h56v-154l140 140v-308l-140 140v-154h-56z" />
    <glyph glyph-name="uniE022" unicode="&#xe022;" 
d="M336 328v-336h-56v154l-140 -140v308l140 -140v154h56z" />
    <glyph glyph-name="uniE023" unicode="&#xe023;" 
d="M0 48h448v-56h-448v56zM224 328l224 -224h-448z" />
    <glyph glyph-name="uniE024" unicode="&#xe024;" 
d="M224 384q-93 0 -158.5 -65.5t-65.5 -158.5t65.5 -158.5t158.5 -65.5t158.5 65.5t65.5 158.5t-65.5 158.5t-158.5 65.5zM224 -22q-75 0 -128.5 53.5t-53.5 128.5t53.5 128.5t128.5 53.5t128.5 -53.5t53.5 -128.5t-53.5 -128.5t-128.5 -53.5zM140 230l98 -70l-98 -70v140z
M252 230l98 -70l-98 -70v140z" />
    <glyph glyph-name="uniE025" unicode="&#xe025;" 
d="M224 -64q93 0 158.5 65.5t65.5 158.5t-65.5 158.5t-158.5 65.5t-158.5 -65.5t-65.5 -158.5t65.5 -158.5t158.5 -65.5zM224 342q75 0 128.5 -53.5t53.5 -128.5t-53.5 -128.5t-128.5 -53.5t-128.5 53.5t-53.5 128.5t53.5 128.5t128.5 53.5zM308 90l-98 70l98 70v-140z
M196 90l-98 70l98 70v-140z" />
    <glyph glyph-name="uniE026" unicode="&#xe026;" 
d="M224 384q-93 0 -158.5 -65.5t-65.5 -158.5t65.5 -158.5t158.5 -65.5t158.5 65.5t65.5 158.5t-65.5 158.5t-158.5 65.5zM224 -22q-75 0 -128.5 53.5t-53.5 128.5t53.5 128.5t128.5 53.5t128.5 -53.5t53.5 -128.5t-53.5 -128.5t-128.5 -53.5zM140 244h56v-168h-56v168z
M252 244h56v-168h-56v168z" />
    <glyph glyph-name="uniE027" unicode="&#xe027;" 
d="M224 384q-93 0 -158.5 -65.5t-65.5 -158.5t65.5 -158.5t158.5 -65.5t158.5 65.5t65.5 158.5t-65.5 158.5t-158.5 65.5zM224 -22q-75 0 -128.5 53.5t-53.5 128.5t53.5 128.5t128.5 53.5t128.5 -53.5t53.5 -128.5t-53.5 -128.5t-128.5 -53.5zM168 258l168 -98l-168 -98v196
z" />
    <glyph glyph-name="uniE029" unicode="&#xe029;" 
d="M140 300q0 -35 24.5 -59.5t59.5 -24.5t59.5 24.5t24.5 59.5t-24.5 59.5t-59.5 24.5t-59.5 -24.5t-24.5 -59.5zM336 188h-15l-88 -177l33 163l-42 42l-42 -42l33 -163l-88 177h-15q-16 0 -27 -5t-17 -11t-8.5 -19t-3 -22t-0.5 -27v-140h336v140q0 18 -0.5 27t-3 22
t-8.5 19t-17 11t-27 5z" />
    <glyph glyph-name="uniE028" unicode="&#xe028;" 
d="M98 188q41 0 69.5 -28.5t28.5 -69.5t-28.5 -69.5t-69 -28.5t-69.5 28.5t-29 69.5v14q0 81 57.5 138.5t138.5 57.5v-56q-58 0 -99 -41q-8 -8 -14 -16q8 1 15 1zM350 188q41 0 69.5 -28.5t28.5 -69.5t-28.5 -69.5t-69 -28.5t-69.5 28.5t-29 69.5v14q0 81 57.5 138.5
t138.5 57.5v-56q-58 0 -99 -41q-8 -8 -14 -16q8 1 15 1z" />
    <glyph glyph-name="uniE02A" unicode="&#xe02a;" horiz-adv-x="504" 
d="M210 328q-33 0 -64 -10q-28 -10 -49 -27q-41 -33 -41 -77q0 -24 13 -45q14 -23 40 -40q21 -14 24 -39q1 -4 1 -8l4 4q16 16 39 16h7q13 -2 26 -2q33 0 64 10q28 10 49 27q41 33 41 77t-41 77q-21 17 -49 27q-31 10 -64 10zM210 384q87 0 148.5 -50t61.5 -120t-61.5 -120
t-148.5 -50q-16 0 -33 2q-31 -31 -67 -42t-82 -12v11q22 11 36.5 29t14.5 38q0 6 -1 12q-36 24 -57 58.5t-21 73.5q0 70 61.5 120t148.5 50zM436 3q0 -38 40 -58v-9q-39 1 -69 10.5t-57 35.5q-14 -1 -28 -1q-62 0 -111 30q98 0 168 57q35 28 54 65q20 38 20 81v14
q51 -43 51 -102q0 -33 -18 -62.5t-49 -50.5q-1 -5 -1 -10z" />
    <glyph glyph-name="uniE02B" unicode="&#xe02b;" 
d="M224 132l112 112h-84v112h-56v-112h-84zM326 178l-32 -32l114 -42l-184 -69l-184 69l114 42l-32 32l-122 -46v-112l224 -84l224 84v112z" />
    <glyph glyph-name="uniE02C" unicode="&#xe02c;" 
d="M364 356h-280l-84 -84v-294q0 -14 14 -14h420q14 0 14 14v294zM224 20l-140 112h84v84h112v-84h84zM68 300l28 28h256l28 -28h-312z" />
    <glyph glyph-name="uniE00B" unicode="&#xe00b;" 
d="M392 328h-42v-14q0 -12 -8 -20t-20 -8t-20 8t-8 20v14h-140v-14q0 -12 -8 -20t-20 -8t-20 8t-8 20v14h-42q-12 0 -20 -8t-8 -20v-308q0 -12 8 -20t20 -8h336q12 0 20 8t8 20v308q0 12 -8 20t-20 8zM392 -8h-336v252h336v-252zM126 300q14 0 14 14v56q0 14 -14 14t-14 -14
v-56q0 -14 14 -14zM322 300q14 0 14 14v56q0 14 -14 14t-14 -14v-56q0 -14 14 -14zM252 216h-140v-28h112v-56h-112v-28h112v-56h-112v-28h140v196zM308 20h28v196h-56v-28h28v-168zM382 -46h-316q-11 0 -19.5 6.5t-8.5 17.5v-14q0 -12 8.5 -20t19.5 -8h316q11 0 19.5 8
t8.5 20v14q0 -11 -8.5 -17.5t-19.5 -6.5z" />
    <glyph glyph-name="uniE02D" unicode="&#xe02d;" 
d="M364 309q36 0 84 32v-261q-48 -32 -84 -32q-49 0 -84 23.5t-84 23.5q-38 0 -84 -30v260q46 31 84 31q49 0 84 -23.5t84 -23.5zM56 384q12 0 20 -8t8 -20v-420h-56v420q0 12 8 20t20 8z" />
    <glyph glyph-name="uniE02E" unicode="&#xe02e;" 
d="M84 384v-448l140 140l140 -140v448h-280z" />
    <glyph glyph-name="uniE02F" unicode="&#xe02f;" 
d="M305 241l-28 28l-142 -142q-18 -17 -18 -42t17.5 -43t42.5 -18t43 18l171 170q29 30 29 71.5t-29.5 71t-71 29.5t-71.5 -29l-179 -179v-1q-41 -41 -41 -99t41 -99t99 -41t99 41h1l122 123l-29 28l-122 -122v-1q-29 -29 -70.5 -29t-71 29.5t-29.5 71t29 70.5h1l179 179
q18 18 43 18t42.5 -17.5t17.5 -42.5t-18 -43l-170 -171q-6 -5 -14.5 -5t-14.5 5.5t-6 14t6 14.5z" />
    <glyph glyph-name="uniE030" unicode="&#xe030;" 
d="M434 216h-154v154q0 14 -14 14h-84q-14 0 -14 -14v-154h-154q-14 0 -14 -14v-84q0 -14 14 -14h154v-154q0 -14 14 -14h84q14 0 14 14v154h154q14 0 14 14v84q0 14 -14 14z" />
    <glyph glyph-name="uniE031" unicode="&#xe031;" 
d="M0 202v-84q0 -14 14 -14h420q14 0 14 14v84q0 14 -14 14h-420q-14 0 -14 -14z" />
    <glyph glyph-name="uniE032" unicode="&#xe032;" horiz-adv-x="476" 
d="M389.5 -19q-8.5 0 -15 6t-6.5 14.5t7 14.5q59 60 59 144t-59 144q-7 6 -7 14.5t6.5 14.5t15 6t14.5 -6q72 -72 72 -173t-72 -173q-6 -6 -14.5 -6zM314.5 20q-8.5 0 -14.5 6.5t-6 15t6 14.5q43 43 43 104t-43 104q-6 6 -6 14.5t6 15t14.5 6.5t15.5 -6q55 -56 55 -134
t-55 -134q-7 -6 -15.5 -6zM240 60q-9 0 -15 6t-6 15t6 15q27 26 27 64t-27 64q-6 6 -6 15t6 15t15 6t15 -6q39 -39 39 -94t-39 -94q-6 -6 -15 -6zM176 350q8 8 14 5.5t6 -14.5v-362q0 -12 -6 -14.5t-14 5.5l-106 106h-70v168h70z" />
    <glyph glyph-name="uniE033" unicode="&#xe033;" 
d="M314.5 20q-8.5 0 -14.5 6.5t-6 15t6 14.5q43 43 43 104t-43 104q-6 6 -6 14.5t6 15t14.5 6.5t15.5 -6q55 -56 55 -134t-55 -134q-7 -6 -15.5 -6zM240 60q-9 0 -15 6t-6 15t6 15q27 26 27 64t-27 64q-6 6 -6 15t6 15t15 6t15 -6q39 -39 39 -94t-39 -94q-6 -6 -15 -6z
M176 350q8 8 14 5.5t6 -14.5v-362q0 -12 -6 -14.5t-14 5.5l-106 106h-70v168h70z" />
    <glyph glyph-name="uniE034" unicode="&#xe034;" 
d="M240 60q-9 0 -15 6t-6 15t6 15q27 26 27 64t-27 64q-6 6 -6 15t6 15t15 6t15 -6q39 -39 39 -94t-39 -94q-6 -6 -15 -6zM176 350q8 8 14 5.5t6 -14.5v-362q0 -12 -6 -14.5t-14 5.5l-106 106h-70v168h70z" />
    <glyph glyph-name="uniE035" unicode="&#xe035;" 
d="M176 350q8 8 14 5.5t6 -14.5v-362q0 -12 -6 -14.5t-14 5.5l-106 106h-70v168h70z" />
    <glyph glyph-name="uniE036" unicode="&#xe036;" 
d="M176 350q8 8 14 5.5t6 -14.5v-362q0 -12 -6 -14.5t-14 5.5l-106 106h-70v168h70zM420 113v-37h-37l-47 47l-47 -47h-37v37l47 47l-47 47v37h37l47 -47l47 47h37v-37l-47 -47z" />
    <glyph glyph-name="uniE037" unicode="&#xe037;" 
d="M187 356q9 0 9 -15v-362q0 -15 -9 -15q-5 0 -11 6l-106 106h-70v168h70l106 106q6 6 11 6zM448 132h-84v-84h-56v84h-84v56h84v84h56v-84h84v-56z" />
    <glyph glyph-name="uniE038" unicode="&#xe038;" 
d="M187 356q9 0 9 -15v-362q0 -15 -9 -15q-5 0 -11 6l-106 106h-70v168h70l106 106q6 6 11 6zM224 188h224v-56h-224v56z" />
    <glyph glyph-name="uniE039" unicode="&#xe039;" 
d="M56 244h280v-84l112 112l-112 112v-84h-336v-168h56v112zM392 76h-280v84l-112 -112l112 -112v84h336v168h-56v-112z" />
    <glyph glyph-name="uniE03A" unicode="&#xe03a;" 
d="M382 318q-65 66 -158 66q-71 0 -128.5 -40.5t-81.5 -104.5l53 -20q18 48 61 78.5t96 30.5q70 0 119 -49l-63 -63h168v168zM224 -8q-70 0 -119 49l63 63h-168v-168l66 66q65 -66 158 -66q71 0 128.5 40.5t81.5 104.5l-53 20q-18 -48 -61 -78.5t-96 -30.5z" />
    <glyph glyph-name="uniE03B" unicode="&#xe03b;" 
d="M140 104v84h84l-112 112l-112 -112h84v-140h168l-56 56h-56zM364 132v140h-168l56 -56h56v-84h-84l112 -112l112 112h-84z" />
    <glyph glyph-name="uniE03C" unicode="&#xe03c;" 
d="M448 272l-112 112v-84q-85 0 -134 -42l-6 -6q14 -19 29 -50q35 42 111 42v-84v-84q-34 0 -57.5 6.5t-40 22.5t-24.5 28.5t-21 39.5q-30 61 -59 85q-49 42 -134 42v-56q34 0 57.5 -6.5t40 -22.5t24.5 -28.5t21 -39.5q30 -61 59 -85q49 -42 134 -42v-84l112 112l-112 112z
M0 76v-56q85 0 134 42l6 6q-14 19 -29 50q-35 -42 -111 -42z" />
    <glyph glyph-name="uniE03D" unicode="&#xe03d;" 
d="M373 384h-298q-31 0 -53 -22t-22 -53v-298q0 -31 22 -53t53 -22h298q31 0 53 22t22 53v298q0 31 -22 53t-53 22zM367 234v-9q0 -52 -23.5 -99.5t-72.5 -80.5t-114 -33q-61 0 -112 33q8 -1 17 -1q51 0 92 32q-24 1 -43 15.5t-26 36.5q7 -1 14 -1q10 0 19 3q-25 5 -42 25.5
t-17 47.5v1q16 -9 33 -9q-32 22 -32 62q0 20 10 38q58 -74 151 -79q-2 9 -2 17q0 31 22 53t52 22q32 0 54 -23q25 5 46 18q-8 -27 -32 -42q22 3 42 12q-15 -23 -36 -39z" />
    <glyph glyph-name="uniE03E" unicode="&#xe03e;" 
d="M374 384h-300q-30 0 -52 -22t-22 -52v-300q0 -30 22 -52t52 -22h300q30 0 52 22t22 52v300q0 30 -22 52t-52 22zM143 188h162q4 -14 4 -28q0 -35 -25 -60t-60 -25t-60 25t-25 60q0 14 4 28zM392 188v-112v-56q0 -12 -8 -20t-20 -8h-280q-12 0 -20 8t-8 20v56v112h44
q-3 -14 -3 -28q0 -53 37 -90t90 -37t90 37t37 90q0 14 -3 28h44zM392 286q0 -14 -14 -14h-28q-14 0 -14 14v28q0 14 14 14h28q14 0 14 -14v-28z" />
    <glyph glyph-name="uniE03F" unicode="&#xe03f;" 
d="M373 384h-298q-31 0 -53 -22t-22 -53v-298q0 -31 22 -53t53 -22h298q31 0 53 22t22 53v298q0 31 -22 53t-53 22zM381 160h-73v-196h-84v196h-40v64h40v42q0 44 21.5 67t69.5 23h77v-69h-63q-13 0 -17 -6.5t-4 -21.5v-35h84z" />
    <glyph glyph-name="uniE040" unicode="&#xe040;" 
d="M0 4v3v-3zM103 137q30 -1 48 26t12.5 66.5t-30.5 67.5t-55 29t-47.5 -25.5t-12.5 -66t30 -68t55 -29.5zM448 272v37q0 31 -22 53t-53 22h-298q-31 0 -52.5 -21t-22.5 -52q47 42 98 42h156l-35 -30h-50q24 -9 37.5 -34t13.5 -56q0 -47 -44 -81q-19 -15 -24.5 -23.5
t-5.5 -21.5q0 -9 13.5 -24t27.5 -24q30 -22 42 -44.5t12 -57.5q0 -10 -2 -21h134q31 0 53 22t22 53v233h-84v-84h-28v84h-84v28h84v84h28v-84h84zM81 49h14h13q-21 21 -21 43q0 14 8 29h-14q-48 0 -81 28v-30v-88q37 18 81 18zM1 -4q0 3 -1 7q1 -4 1 -7zM199 -33
q-1 6 -3.5 10.5t-6.5 9t-7 8t-9.5 8.5t-10 7.5t-12.5 8.5t-13 9q-19 6 -39 6q-62 1 -96 -38q5 -26 25.5 -43t47.5 -17h125q1 7 1 15t-2 16z" />
    <glyph glyph-name="uniE041" unicode="&#xe041;" 
d="M373 384h-298q-31 0 -53 -22t-22 -53v-298q0 -31 22 -53t53 -22h298q31 0 53 22t22 53v298q0 31 -22 53t-53 22zM122 20q-16 0 -27 11.5t-11 27t11 26.5t27 11t27 -11t11 -26.5t-11 -27t-27 -11.5zM218 20q0 56 -39.5 95t-94.5 39v55q78 0 133.5 -55.5t55.5 -133.5h-55z
M315 20q0 96 -67.5 163.5t-163.5 67.5v55q118 0 202 -84t84 -202h-55z" />
    <glyph glyph-name="uniE019" unicode="&#xe019;" 
d="M373 384h-298q-31 0 -53 -22t-22 -53v-205l7 28h14l7 -28l-7 -28h-14l-7 28v-93q0 -31 22 -53t53 -22h298q31 0 53 22t22 53v93q0 -23 -17 -39.5t-41 -16.5h-160q-6 1 -6 7v176q0 4 6 6q17 7 36 7q40 0 69 -26t33 -63q11 4 22 4q24 0 41 -16t17 -39v205q0 31 -22 53
t-53 22zM77 48h-14l-7 56l7 56h14l7 -56zM133 48h-14l-7 71l7 69h14l7 -70zM189 48h-14l-7 98l7 98h14l7 -98z" />
    <glyph glyph-name="uniE042" unicode="&#xe042;" 
d="M373 384h-298q-31 0 -53 -22t-22 -53v-298q0 -31 22 -53t53 -22h298q31 0 53 22t22 53v298q0 31 -22 53t-53 22zM327 51q-54 0 -80.5 20.5t-38.5 58.5l-15 45q-9 29 -22.5 43.5t-40.5 14.5q-23 0 -39 -18.5t-16 -56.5q0 -32 15 -51t38 -19q16 0 30.5 6.5t21.5 12.5l7 7
l14 -39q-3 -3 -8.5 -7t-25 -10.5t-41.5 -6.5q-47 0 -72.5 27t-25.5 78q0 54 26 83.5t75 29.5q45 0 70 -18t39 -62l15 -45q8 -27 25.5 -42t48.5 -15q47 0 47 24q0 20 -30 28l-31 7q-52 12 -52 59q0 34 23 49t57 15q72 0 77 -57l-45 -6q-2 28 -35 28q-32 0 -32 -24
q0 -21 26 -26l29 -7q59 -13 59 -64q0 -62 -93 -62z" />
    <glyph glyph-name="uniE043" unicode="&#xe043;" 
d="M373 384h-298q-31 0 -53 -22t-22 -53v-298q0 -31 22 -53t53 -22h298q31 0 53 22t22 53v298q0 31 -22 53t-53 22zM420 11q0 -20 -13.5 -33.5t-33.5 -13.5h-149v196h-196v149q0 20 13.5 33.5t33.5 13.5h149v-196h196v-149z" />
    <glyph glyph-name="uniE044" unicode="&#xe044;" 
d="M373 384h-298q-31 0 -53 -22t-22 -53v-298q0 -31 22 -53t53 -22h298q31 0 53 22t22 53v298q0 31 -22 53t-53 22zM246 85q-7 0 -13.5 2.5t-10.5 4.5t-10.5 7t-10.5 7q-8 -43 -19 -70.5t-32 -42.5q-5 20 -2 49.5t6.5 44.5t10.5 42t10 41q-8 18 -6.5 39t16 35.5t33.5 6.5
q16 -7 15 -27t-10 -41.5t-8 -40.5t22 -23q23 -5 41 12.5t24.5 43.5t3.5 54.5t-18 43.5q-21 21 -50.5 23t-54 -11t-40 -39t-10.5 -57q1 -7 7 -17t7 -15.5t-6 -22.5q-49 11 -47 77q2 46 35.5 78t77.5 37q55 6 97 -19t48 -73q9 -59 -21.5 -106t-84.5 -43z" />
    <glyph glyph-name="uniE045" unicode="&#xe045;" 
d="M26 384l36 -403l162 -45l162 45l36 403h-396zM343 252h-189l5 -51h180l-14 -151l-101 -28v0l-102 28l-6 77h49l4 -39l55 -15l55 15l6 64h-172l-13 150h248z" />
    <glyph glyph-name="uniE046" unicode="&#xe046;" 
d="M67 363l-15 -75h306l-10 -49h-306l-15 -75h306l-17 -86l-123 -41l-107 41l7 37h-75l-18 -90l177 -68l204 68l67 338h-381z" />
    <glyph glyph-name="uniE047" unicode="&#xe047;" 
d="M113 189l-64 111q31 39 77 61.5t98 22.5q60 0 111.5 -30t81.5 -80h-183q-5 1 -10 1q-40 0 -70.5 -24.5t-40.5 -61.5zM304 242h129q15 -39 15 -82q0 -92 -65 -157.5t-156 -66.5l91 159q21 29 21 65q0 48 -35 82zM143 160q0 34 23.5 57.5t57.5 23.5t57.5 -23.5t23.5 -57.5
t-23.5 -57.5t-57.5 -23.5t-57.5 23.5t-23.5 57.5zM255 50l-64 -112q-82 13 -136.5 75.5t-54.5 146.5q0 59 29 110l91 -159q14 -29 42 -47.5t62 -18.5q16 0 31 5z" />
    <glyph glyph-name="uniE048" unicode="&#xe048;" 
d="M447 238l-5 -33q-7 61 -16 84q-7 16 -12 24.5t-6.5 10t-2.5 0.5q5 -10 6.5 -19.5t1.5 -12.5v-4q-2 5 -6 13t-19.5 24t-34.5 22q-53 17 -78 11h-1h1l5.5 -1.5t14 -3.5t17 -4.5t16 -6t10.5 -7.5q-23 0 -45 -6l2.5 -0.5t7.5 -2t11.5 -3.5t14 -6t15 -9t15.5 -12t14.5 -15.5
t11.5 -20.5t8 -25q-9 19 -21 22q6 -18 5 -44.5t-6 -42.5q-1 -1 -1.5 1.5t-4.5 8t-10 8.5q4 -28 -1.5 -58t-21.5 -40l3 12q5 23 4 23q-1 1 -4 -4q-15 -23 -31.5 -36.5t-33 -16.5t-30 -2.5t-30 8.5t-24.5 12.5t-20 12.5q13 -2 33 1t30 11q27 18 33 16q7 -1 9.5 4t-1.5 10
q-17 19 -43 12q-4 -1 -12 -4.5t-14 -5.5t-16 -0.5t-20 6.5q-23 14 -24 31q1 4 2 7q3 6 15 11q9 -2 19 -7v9q1 1 0 9t-3 13v0v1v0q0 2 11 10q6 4 17 11l8 5l1 1h1q5 5 6 13v1v0v1v3v1v0v0v0q-1 3 -16 3v0h-19q-16 0 -25 20q5 28 30 43l-19 -2q-27 -6 -40 -23q-24 6 -46 1
q-4 0 -9 1q-21 19 -22 40v1q-3 -3 -7.5 -8t-11 -24.5t-4.5 -43.5v-3q-10 -14 -11 -20q-11 -22 -18 -62q4 12 11 25q-10 -32 -7 -81q1 8 3 21q3 -43 30 -89q57 -98 165 -106q17 -2 35 0h4q21 1 41 6q38 9 67.5 29.5t46.5 43.5t28.5 52.5t16 52t6 47t1.5 32.5t-1 13z" />
    <glyph glyph-name="uniE049" unicode="&#xe049;" 
d="M321 109h103q2 10 2 22q0 52 -26 96q27 73 -7 107q-15 16 -55.5 13t-89.5 -24h-15q-67 0 -119 -41t-67 -104q43 55 97 81q-6 -5 -28 -28q-38 -37 -65 -82t-39 -83t-12 -68.5t14 -43.5q40 -40 132 5q41 -21 87 -21q63 0 113 36.5t69 93.5h-104q-11 -20 -31 -32t-43.5 -12
t-43.5 12t-31 32q-10 19 -10 41h169zM152 160q2 32 25.5 54t55.5 22t55.5 -22t25.5 -54h-162zM392 312q22 -22 2 -76q-33 51 -89 74q63 27 87 2zM41 -39q-28 28 11 105q23 -64 82 -100q-68 -31 -93 -5z" />
    <glyph glyph-name="uniE04A" unicode="&#xe04a;" 
d="M223 384q-92 0 -151 -61.5t-59 -160.5q0 -92 59.5 -159t150.5 -67q92 0 152 67t60 159q0 99 -60 160.5t-152 61.5zM301 166q0 -28 -1 -48t-5 -47t-12 -43.5t-23.5 -29t-36.5 -12.5q-17 0 -30.5 8t-21.5 23t-13 31t-7 39t-3 39.5t-1 39.5q0 37 2.5 63.5t10 53t23.5 40
t40 13.5t40.5 -14t24 -40t10.5 -53t3 -63z" />
    <glyph glyph-name="uniE04B" unicode="&#xe04b;" 
d="M224 356q-16 0 -31 -2v1q9 7 7 16q-3 13 -20 13q-4 0 -7 -1q-10 -2 -16 -8.5t-4 -13.5q2 -9 13 -12v-1q-67 -19 -109.5 -75t-42.5 -127q0 -87 61.5 -148.5t148.5 -61.5t148.5 61.5t61.5 148.5t-61.5 148.5t-148.5 61.5zM160 363q-1 4 3 8t11 5q3 1 6 1q11 0 13 -7
q1 -5 -5 -10q-5 4 -11 2.5t-9 -6.5q-7 2 -8 7zM337 33q-29 -29 -68 -40l-19 30l-5 -35q-10 -1 -21 -1q-66 0 -113 46q-29 29 -40 68l30 19l-35 5q-1 10 -1 21q0 66 46 113q29 29 68 40l19 -30l5 35q10 1 21 1q66 0 113 -46q29 -29 40 -68l-30 -19l35 -5q1 -10 1 -21
q0 -66 -46 -113zM333 255l-86 -66q-10 6 -21 6l-22 47l-2 -52q-9 -4 -15 -12l-28 10l21 -21q-5 -9 -5 -19l-47 -22l52 -2l1 -1l-66 -86l86 66q10 -6 21 -6l22 -47l2 52q9 4 15 12l28 -10l-21 21q5 9 5 19l47 22l-52 2l-1 1zM224 190v-2v2zM215 187q5 1 9 1h5v0q6 -1 11 -3
l-31 -24l-24 -31q-1 3 -2 7q-4 17 5.5 31.5t26.5 18.5zM246 110v0q-6 -4 -13 -5q-5 -1 -9 -1h-5v0q-6 1 -11 3l31 24l24 31q1 -3 2 -7q6 -29 -19 -45z" />
    <glyph glyph-name="uniE04C" unicode="&#xe04c;" 
d="M325 216h-59l-42 -62l-42 62h-59l71 -106l-80 -118h115v40h-27l22 33l49 -73h61l-80 118zM395 297l-62 62q-10 10 -28 17.5t-32 7.5h-210q-14 0 -24.5 -10.5t-10.5 -24.5v-378q0 -14 10.5 -24.5t24.5 -10.5h322q14 0 24.5 10.5t10.5 24.5v266q0 14 -7.5 32t-17.5 28z
M375 277l5 -5h-72v72l5 -5zM392 -29q0 -7 -7 -7h-322q-7 0 -7 7v378q0 7 7 7h210q3 0 7 -1v-111h111q1 -4 1 -7v-266z" />
    <glyph glyph-name="uniE04D" unicode="&#xe04d;" 
d="M182 328h42v-28h-42v28zM140 300h42v-28h-42v28zM182 272h42v-28h-42v28zM140 244h42v-28h-42v28zM182 216h42v-28h-42v28zM140 188h42v-28h-42v28zM182 160v-28h-42v-98q0 -14 14 -14h56q14 0 14 14v126h-42zM210 48h-56v28h56v-28zM395 297l-62 62q-10 10 -28 17.5
t-32 7.5h-210q-14 0 -24.5 -10.5t-10.5 -24.5v-378q0 -14 10.5 -24.5t24.5 -10.5h322q14 0 24.5 10.5t10.5 24.5v266q0 14 -7.5 32t-17.5 28zM375 277l5 -5h-72v72l5 -5zM392 -29q0 -7 -7 -7h-322q-7 0 -7 7v378q0 7 7 7h210q3 0 7 -1v-111h111q1 -4 1 -7v-266z" />
    <glyph glyph-name="uniE04E" unicode="&#xe04e;" 
d="M224 384q-93 0 -158.5 -20.5t-65.5 -49.5v-42l168 -168v-140q0 -12 16.5 -20t39.5 -8t39.5 8t16.5 20v140l168 168v42q0 29 -65.5 49.5t-158.5 20.5zM41 323q16 9 43 17q60 16 140 16t140 -16q27 -8 43 -17q8 -5 12 -9q-4 -4 -12 -9q-16 -9 -43 -17q-60 -16 -140 -16
t-140 16q-27 8 -43 17q-8 5 -12 9q4 4 12 9z" />
    <glyph glyph-name="uniE04F" unicode="&#xe04f;" 
d="M0 328l168 -168v-168l112 28v140l168 168h-448z" />
    <glyph glyph-name="uniE050" unicode="&#xe050;" 
d="M406 132q15 0 17 -21t-8 -42t-23 -21q6 -3 5.5 -18.5t-10.5 -33.5t-23 -18q0 -20 -16.5 -31t-39.5 -11q-62 0 -101 18t-95 24v224q83 25 146.5 78t63.5 104q8 0 17 -4t17 -15.5t9.5 -29t-9 -48.5t-34.5 -71h84q19 0 24.5 -21t-2.5 -42t-22 -21zM84 202v-224h28v-14h-56
q-12 0 -20 12.5t-8 29.5v168q0 17 8 29.5t20 12.5h56v-14h-28z" />
    <glyph glyph-name="uniE051" unicode="&#xe051;" 
d="M42 188q-15 0 -17 21t8 42t23 21q-6 3 -5.5 18.5t10.5 33.5t23 18q0 20 16.5 31t39.5 11q62 0 101 -18t95 -24v-224q-83 -25 -146.5 -78t-63.5 -104q-8 0 -17 4t-17 15.5t-9.5 29t9 48.5t34.5 71h-84q-19 0 -24.5 21t2.5 42t22 21zM364 118v224h-28v14h56q12 0 20 -12.5
t8 -29.5v-168q0 -17 -8 -29.5t-20 -12.5h-56v14h28z" />
    <glyph glyph-name="uniE052" unicode="&#xe052;" 
d="M434 3l-106 90q-16 15 -32 14q40 47 40 109q0 70 -49 119t-119 49t-119 -49t-49 -119t49 -119t119 -49q62 0 109 40q-1 -16 14 -32l90 -106q12 -13 28.5 -14t28 10.5t10.5 28t-14 28.5zM168 104q-46 0 -79 33t-33 79t33 79t79 33t79 -33t33 -79t-33 -79t-79 -33z" />
    <glyph glyph-name="uniF19F" unicode="&#xf19f;" 
d="M420 -64h-392q-12 0 -20 8.5t-8 19.5v392q0 11 8 19.5t20 8.5h392q11 0 19.5 -8.5t8.5 -19.5v-392q0 -12 -8.5 -20t-19.5 -8zM420 328q0 11 -8.5 19.5t-19.5 8.5h-308q-12 0 -20 -8t-8 -20v-336q0 -12 8 -20t20 -8h308q11 0 19.5 8t8.5 20v336zM238 -8q-42 0 -77.5 20.5
t-56 56t-20.5 77.5t20.5 77.5t56 56t77.5 20.5t77.5 -20.5t56 -56t20.5 -77.5t-20.5 -77.5t-56 -56t-77.5 -20.5zM238 216q-29 0 -49.5 -20.5t-20.5 -49.5t20.5 -49.5t49.5 -20.5t49.5 20.5t20.5 49.5t-20.5 49.5t-49.5 20.5zM238 104q-18 0 -30 12t-12 30t12 30t30 12
t30 -12t12 -30t-12 -30t-30 -12z" />
    <glyph glyph-name="uniF377" unicode="&#xf377;" 
d="M420 -8h-392q-11 0 -19.5 8.5t-8.5 19.5v280q0 11 8.5 19.5t19.5 8.5h392q12 0 20 -8.5t8 -19.5v-280q0 -11 -8 -19.5t-20 -8.5zM266 20q6 0 10 4t4 10t-4 10t-10 4t-10 -4t-4 -10t4 -10t10 -4zM42 20q6 0 10 4t4 10t-4 10t-10 4t-10 -4t-4 -10t4 -10t10 -4zM42 300
q-6 0 -10 -4t-4 -10t4 -10t10 -4t10 4t4 10t-4 10t-10 4zM112 244q-35 0 -59.5 -24.5t-24.5 -59.5t24.5 -59.5t59.5 -24.5t59.5 24.5t24.5 59.5t-24.5 59.5t-59.5 24.5zM182 48q-6 0 -10 -4t-4 -10t4 -10t10 -4t10 4t4 10t-4 10t-10 4zM406 300q-6 0 -10 -4t-4 -10t4 -10
t10 -4t10 4t4 10t-4 10t-10 4zM336 244q-35 0 -59.5 -24.5t-24.5 -59.5t24.5 -59.5t59.5 -24.5t59.5 24.5t24.5 59.5t-24.5 59.5t-59.5 24.5zM406 48q-6 0 -10 -4t-4 -10t4 -10t10 -4t10 4t4 10t-4 10t-10 4zM336.5 132q-11.5 0 -20 8t-8.5 20t8.5 20t20 8t19.5 -8t8 -20
t-8 -20t-19.5 -8zM112.5 132q-11.5 0 -20 8t-8.5 20t8.5 20t20 8t19.5 -8t8 -20t-8 -20t-19.5 -8z" />
    <glyph glyph-name="uniF372" unicode="&#xf372;" 
d="M364 -64h-280q-11 0 -19.5 8.5t-8.5 19.5v392q0 11 8 19.5t20 8.5h280q12 0 20 -8t8 -20v-392q0 -12 -8.5 -20t-19.5 -8zM224 356q-23 0 -39.5 -16.5t-16.5 -39.5t16.5 -39.5t39.5 -16.5t39.5 16.5t16.5 39.5t-16.5 39.5t-39.5 16.5zM224 188q-46 0 -79 -33t-33 -79
t33 -79t79 -33t79 33t33 79t-33 79t-79 33zM224 20q-23 0 -39.5 16.5t-16.5 39.5t16.5 39.5t39.5 16.5t39.5 -16.5t16.5 -39.5t-16.5 -39.5t-39.5 -16.5zM224 272q-11 0 -19.5 8t-8.5 19.5t8.5 20t20 8.5t19.5 -8.5t8 -20t-8.5 -19.5t-19.5 -8z" />
    <glyph glyph-name="uniF0CD" unicode="&#xf0cd;" 
d="M223.5 -64q-45.5 0 -87 17.5t-71.5 47.5t-47.5 71.5t-17.5 87.5t17.5 87.5t47.5 71.5t71.5 47.5t87.5 17.5t87.5 -17.5t71.5 -47.5t47.5 -71.5t17.5 -87.5t-17.5 -87.5t-47.5 -71.5t-72 -47.5t-87.5 -17.5zM224 -8q35 0 66 14l-44 102q-11 -4 -22 -4q-20 0 -35 13
l-71 -87q46 -38 106 -38zM252 159.5q0 11.5 -8.5 20t-19.5 8.5t-19.5 -8.5t-8.5 -20t8.5 -19.5t19.5 -8t19.5 8t8.5 19.5zM56 160q0 -60 38 -106l87 71q-13 15 -13 35q0 11 4 22l-102 44q-14 -31 -14 -66zM224 328q-35 0 -66 -14l44 -103q11 5 22 5q20 0 35 -13l71 87
q-46 38 -106 38zM354 266l-87 -71q13 -15 13 -35q0 -11 -4 -22l102 -44q14 31 14 66q0 60 -38 106z" />
    <glyph glyph-name="uniE053" unicode="&#xe053;" 
d="M224 384q-93 0 -158.5 -65.5t-65.5 -158.5t65.5 -158.5t158.5 -65.5t158.5 65.5t65.5 158.5t-65.5 158.5t-158.5 65.5zM224 105q-23 0 -39 16t-16 39t16 39.5t39 16.5t39.5 -16.5t16.5 -39.5t-16.5 -39t-39.5 -16z" />
    <glyph glyph-name="uniF0CC" unicode="&#xf0cc;" 
d="M223.5 -64q-45.5 0 -87 17.5t-71.5 47.5t-47.5 71.5t-17.5 87.5t17.5 87.5t47.5 71.5t71.5 47.5t87.5 17.5t87.5 -17.5t71.5 -47.5t47.5 -71.5t17.5 -87.5t-17.5 -87.5t-47.5 -71.5t-72 -47.5t-87.5 -17.5zM224 244q-35 0 -59.5 -24.5t-24.5 -59.5t24.5 -59.5t59.5 -24.5
t59.5 24.5t24.5 59.5t-24.5 59.5t-59.5 24.5zM224 104q-23 0 -39.5 16.5t-16.5 39.5t16.5 39.5t39.5 16.5t39.5 -16.5t16.5 -39.5t-16.5 -39.5t-39.5 -16.5zM223.5 188q-11.5 0 -19.5 -8.5t-8 -20t8 -19.5t19.5 -8t20 8t8.5 19.5t-8.5 20t-20 8.5z" />
    <glyph glyph-name="uniF186" unicode="&#xf186;" 
d="M392 -64h-56q-23 0 -39.5 16.5t-16.5 39.5v336q0 23 16.5 39.5t39.5 16.5h56q23 0 39.5 -16.5t16.5 -39.5v-336q0 -23 -16.5 -39.5t-39.5 -16.5zM112 -64h-56q-23 0 -39.5 16.5t-16.5 39.5v336q0 23 16.5 39.5t39.5 16.5h56q23 0 39.5 -16.5t16.5 -39.5v-336
q0 -23 -16.5 -39.5t-39.5 -16.5z" />
    <glyph glyph-name="uniF188" unicode="&#xf188;" 
d="M335 165q-11 -12 -27 5v73q-54 -4 -86 -23q-7 27 -31 48q49 32 117 32v74q16 17 27 5l106 -90q7 -7 7 -17t-7 -17zM196 132q0 -20 31.5 -35.5t80.5 -19.5v73q16 17 27 5l106 -90q7 -7 7 -17t-7 -17l-106 -90q-11 -12 -27 5v74q-46 0 -84.5 15t-61 41t-22.5 56v56
q0 21 -31.5 36t-80.5 19v1q-11 0 -19.5 8.5t-8.5 20t8.5 19.5t19.5 8q46 0 84.5 -15t61 -40.5t22.5 -56.5v-56zM28 76v1q54 5 86 23q7 -26 31 -48q-49 -32 -117 -32q-11 0 -19.5 8.5t-8.5 20t8.5 19.5t19.5 8z" />
    <glyph glyph-name="uniF187" unicode="&#xf187;" 
d="M392 20h-252v-74q-16 -17 -27 -5l-106 90q-7 7 -7 17t7 17l106 90q11 12 27 -5v-74h224q11 0 19.5 8t8.5 20v56q0 11 8 19.5t19.5 8.5t20 -8.5t8.5 -19.5v-84q0 -23 -16.5 -39.5t-39.5 -16.5zM335 164q-11 -11 -27 6v74h-224q-12 0 -20 -8.5t-8 -19.5v-56q0 -12 -8.5 -20
t-20 -8t-19.5 8t-8 20v84q0 23 16.5 39.5t39.5 16.5h252v74q16 17 27 5l106 -91q7 -7 7 -16.5t-7 -16.5z" />
    <glyph glyph-name="uniF18A" unicode="&#xf18a;" 
d="M392 -64q-23 0 -39.5 16.5t-16.5 39.5v336q0 23 16.5 39.5t39.5 16.5t39.5 -16.5t16.5 -39.5v-336q0 -23 -16.5 -39.5t-39.5 -16.5zM27 -59q-11 -12 -27 5v428q16 17 27 5l246 -202q7 -7 7 -17t-7 -17z" />
    <glyph glyph-name="uniF18B" unicode="&#xf18b;" 
d="M421 -59l-246 202q-7 7 -7 17t7 17l246 202q11 12 27 -5v-428q-16 -17 -27 -5zM56 -64q-23 0 -39.5 16.5t-16.5 39.5v336q0 23 16.5 39.5t39.5 16.5t39.5 -16.5t16.5 -39.5v-336q0 -23 -16.5 -39.5t-39.5 -16.5z" />
    <glyph glyph-name="uniF18D" unicode="&#xf18d;" 
d="M392 202q0 -26 -15 -56.5t-35 -50t-34 -19.5q-11 0 -19.5 9t-8.5 19q0 11 8 19.5t20 8.5q0 4 -1.5 9.5t-6.5 20t-10.5 25.5t-15.5 20t-22 9q-15 0 -21.5 -6t-6.5 -22v-196q0 -23 -24.5 -39.5t-59.5 -16.5t-59.5 16.5t-24.5 39.5t24.5 39.5t59.5 16.5q14 0 28 -3v311
q0 11 8.5 19.5t19.5 8.5q18 0 98 -56q14 -9 23 -15.5t25 -20t25.5 -25.5t17 -29.5t7.5 -35.5z" />
    <glyph glyph-name="uniF184" unicode="&#xf184;" 
d="M55 381l358 -204q7 -4 7 -17.5t-7 -16.5l-358 -204q-5 -4 -13 -3t-14 8v431q14 15 27 6z" />
    <glyph glyph-name="uniF183" unicode="&#xf183;" 
d="M421 -59l-190 202q-7 7 -7 17t7 17l190 203q11 11 27 -6v-428q-16 -17 -27 -5zM197 -59l-190 202q-7 7 -7 17t7 17l190 203q11 11 27 -6v-428q-16 -17 -27 -5z" />
    <glyph glyph-name="uniF182" unicode="&#xf182;" 
d="M441 143l-190 -202q-11 -12 -27 5v428q16 17 27 5l190 -202q7 -7 7 -17t-7 -17zM27 -59q-11 -12 -27 5v428q16 17 27 5l190 -202q7 -7 7 -17t-7 -17z" />
    <glyph glyph-name="uniF185" unicode="&#xf185;" 
d="M56 384h336q23 0 39.5 -16.5t16.5 -39.5v-336q0 -23 -16.5 -39.5t-39.5 -16.5h-336q-23 0 -39.5 16.5t-16.5 39.5v336q0 23 16.5 39.5t39.5 16.5z" />
    <glyph glyph-name="uniF199" unicode="&#xf199;" 
d="M18 160q-18 16 -6 27l202 190q7 7 17 7t17 -7l202 -190q12 -11 -6 -27h-426zM63 48h336q23 0 39.5 -16.5t16.5 -39.5t-16.5 -39.5t-39.5 -16.5h-336q-23 0 -39.5 16.5t-16.5 39.5t16.5 39.5t39.5 16.5z" />
    <glyph glyph-name="uniF19A" unicode="&#xf19a;" 
d="M408 -24q-37 -37 -87 -40t-83 30q-11 12 -18 20.5t-10 19.5q0 11 -5.5 25t-16.5 25q-13 13 -27 19.5t-25 4.5q-21 25 -23 63.5t17 68.5l-62 62q-17 -5 -30 7l-29 29q-9 9 -9 22t9 21l22 22q8 9 21 9t22 -9l29 -29q12 -13 7 -30l62 -62q30 19 68.5 17t63.5 -23
q-2 -11 4.5 -25t19.5 -27q11 -11 25 -16.5t25 -5.5q11 -3 19.5 -10t20.5 -18q33 -33 30 -83t-40 -87zM238 188q-18 0 -30 -12t-12 -30t12 -30t30 -12t30 12t12 30t-12 30t-30 12zM375 76l-67 -67l17 -17l67 67z" />
    <glyph glyph-name="uniF195" unicode="&#xf195;" 
d="M420 -36h-392q-11 0 -19.5 8.5t-8.5 19.5v224q0 11 8 19.5t20 8.5h28v84q0 11 8.5 19.5t19.5 8.5h280q11 0 19.5 -8.5t8.5 -19.5v-84h28q11 0 19.5 -8.5t8.5 -19.5v-224q0 -11 -8.5 -19.5t-19.5 -8.5zM336 286q0 6 -4 10t-10 4h-196q-6 0 -10 -4t-4 -10v-42h224v42z
M336 188q-35 0 -59.5 -24.5t-24.5 -59.5q0 -32 22 -56h-100q22 24 22 56q0 35 -24.5 59.5t-59.5 24.5t-59.5 -24.5t-24.5 -59.5t24.5 -59.5t59.5 -24.5h224q35 0 59.5 24.5t24.5 59.5t-24.5 59.5t-59.5 24.5zM336 48q-23 0 -39.5 16.5t-16.5 39.5t16.5 39.5t39.5 16.5
t39.5 -16.5t16.5 -39.5t-16.5 -39.5t-39.5 -16.5zM56 104q0 23 16.5 39.5t39.5 16.5t39.5 -16.5t16.5 -39.5t-16.5 -39.5t-39.5 -16.5t-39.5 16.5t-16.5 39.5z" />
    <glyph glyph-name="uniF191" unicode="&#xf191;" 
d="M438 -23l-31 -31q-7 -7 -14.5 -9t-14.5 3l-224 164q50 5 85.5 41t40.5 86l164 -225q5 -7 3 -14.5t-9 -14.5zM126 132q-52 0 -89 37t-37 89t37 89t89 37t89 -37t37 -89t-37 -89t-89 -37zM42 300q-6 0 -10 -4t-4 -10t4 -10t10 -4t10 4t4 10t-4 10t-10 4zM42 244
q-6 0 -10 -4t-4 -10t4 -10t10 -4t10 4t4 10t-4 10t-10 4zM98 356q-6 0 -10 -4t-4 -10t4 -10t10 -4t10 4t4 10t-4 10t-10 4zM98 300q-6 0 -10 -4t-4 -10t4 -10t10 -4t10 4t4 10t-4 10t-10 4zM98 244q-6 0 -10 -4t-4 -10t4 -10t10 -4t10 4t4 10t-4 10t-10 4zM98 188
q-6 0 -10 -4t-4 -10t4 -10t10 -4t10 4t4 10t-4 10t-10 4zM154 356q-6 0 -10 -4t-4 -10t4 -10t10 -4t10 4t4 10t-4 10t-10 4zM154 300q-6 0 -10 -4t-4 -10t4 -10t10 -4t10 4t4 10t-4 10t-10 4zM154 244q-6 0 -10 -4t-4 -10t4 -10t10 -4t10 4t4 10t-4 10t-10 4zM154 188
q-6 0 -10 -4t-4 -10t4 -10t10 -4t10 4t4 10t-4 10t-10 4zM210 300q-6 0 -10 -4t-4 -10t4 -10t10 -4t10 4t4 10t-4 10t-10 4zM224 230q0 6 -4 10t-10 4t-10 -4t-4 -10t4 -10t10 -4t10 4t4 10z" />
    <glyph glyph-name="uniF1A5" unicode="&#xf1a5;" 
d="M410 -23q-42 50 -46 91l-7 8l7 7l-21 21l-63 -63l21 -21l7 7l4 -4q41 -6 92 -51q-24 -22 -57 -31t-65 -3t-52 26q-8 9 -17 23q11 15 11 33q0 23 -16.5 39.5t-39.5 16.5q-8 0 -18 -4q-3 4 -4 5q-27 26 -32.5 68.5t13.5 77.5l-67 83q-7 -6 -16 -6t-16 6l-21 22
q-7 7 -7 16.5t7 15.5l16 17q7 7 16.5 7t15.5 -7l22 -22q7 -6 7 -15.5t-6 -15.5l82 -68q35 20 77.5 14t69.5 -32q1 -1 4 -5q-3 -9 -3 -17q0 -24 16 -40t40 -16q18 0 33 11q14 -9 23 -18q20 -20 26 -52.5t-3.5 -66t-32.5 -57.5zM189 230l-35 -35l35 -35l35 35zM210 97l35 -35
l21 21l-35 35zM287 174l-21 -21l35 -35l21 21z" />
    <glyph glyph-name="uniF1A3" unicode="&#xf1a3;" 
d="M392 20h-28h-14q-6 0 -10 4t-4 10v140q0 6 4 10t10 4h14q0 65 -36 102.5t-104 37.5t-104 -37.5t-36 -102.5h14q6 0 10 -4t4 -10v-140q0 -6 -4 -10t-10 -4h-14q0 -23 16.5 -39.5t39.5 -16.5h28q0 12 8 20t20 8h28q12 0 20 -8t8 -19.5t-8 -20t-20 -8.5h-14h-14h-56
q-35 0 -59.5 24.5t-24.5 59.5q-23 0 -39.5 24.5t-16.5 59.5q0 23 7.5 42t20.5 30v12q0 40 15.5 76t42 62.5t62.5 42t76 15.5t76 -15.5t62.5 -42t42 -62.5t15.5 -76v-12q13 -11 20.5 -30t7.5 -42q0 -35 -16.5 -59.5t-39.5 -24.5z" />
    <glyph glyph-name="uniF1A1" unicode="&#xf1a1;" 
d="M434 160h-14v-112q0 -23 -16.5 -39.5t-39.5 -16.5v-14q0 -6 -4 -10t-10 -4h-28q-6 0 -10 4t-4 10v14h-196v-14q0 -6 -4 -10t-10 -4h-28q-6 0 -10 4t-4 10v14q-23 0 -39.5 16.5t-16.5 39.5v252q0 23 16.5 39.5t39.5 16.5h308q23 0 39.5 -16.5t16.5 -39.5v-28h14q6 0 10 -4
t4 -10v-84q0 -6 -4 -10t-10 -4zM140 20q35 0 59.5 24.5t24.5 59.5t-24.5 59.5t-59.5 24.5t-59.5 -24.5t-24.5 -59.5t24.5 -59.5t59.5 -24.5zM364 286q0 6 -4 10t-10 4h-280q-6 0 -10 -4t-4 -10v-56q0 -6 4 -10t10 -4h42l42 56l42 -56h154q6 0 10 4t4 10v56zM140 132
q12 0 20 -8t8 -20t-8 -20t-19.5 -8t-20 8t-8.5 20t8 20t20 8z" />
    <glyph glyph-name="uniF190" unicode="&#xf190;" 
d="M308 -64h-168q-23 0 -39.5 16.5t-16.5 39.5v336q0 23 16.5 39.5t39.5 16.5h168q23 0 39.5 -16.5t16.5 -39.5v-336q0 -23 -16.5 -39.5t-39.5 -16.5zM336 328q0 11 -8 19.5t-20 8.5h-168q-12 0 -20 -8.5t-8 -19.5v-84q0 -12 8 -20t20 -8h168q11 0 19.5 8t8.5 20v84z
M224 188q-46 0 -79 -33t-33 -79t33 -79t79 -33t79 33t33 79t-33 79t-79 33zM224 -8q-35 0 -59.5 24.5t-24.5 59.5t24.5 59.5t59.5 24.5t59.5 -24.5t24.5 -59.5t-24.5 -59.5t-59.5 -24.5zM224 104q-12 0 -20 -8.5t-8 -20t8 -19.5t20 -8t20 8t8 20t-8 20t-20 8z" />
    <glyph glyph-name="uniF18F" unicode="&#xf18f;" 
d="M420 48h-56q-12 0 -20 8.5t-8 20t8 19.5t20 8h56q11 0 19.5 -8t8.5 -19.5t-8.5 -20t-19.5 -8.5zM420 132h-56q-12 0 -20 8.5t-8 20t8 19.5t20 8h56q11 0 19.5 -8t8.5 -19.5t-8.5 -20t-19.5 -8.5zM420 216h-56q-12 0 -20 8t-8 20t8 20t20 8h56q11 0 19.5 -8t8.5 -19.5
t-8.5 -20t-19.5 -8.5zM252 -36h-56q-12 0 -20 8.5t-8 20t8 19.5t20 8h56q12 0 20 -8t8 -19.5t-8.5 -20t-19.5 -8.5zM252 48h-56q-12 0 -20 8.5t-8 20t8 19.5t20 8h56q12 0 20 -8t8 -19.5t-8.5 -20t-19.5 -8.5zM252 132h-56q-12 0 -20 8.5t-8 20t8 19.5t20 8h56q12 0 20 -8
t8 -19.5t-8.5 -20t-19.5 -8.5zM84 -36h-56q-12 0 -20 8.5t-8 20t8 19.5t20 8h56q12 0 20 -8t8 -19.5t-8.5 -20t-19.5 -8.5zM84 48h-56q-12 0 -20 8.5t-8 20t8 19.5t20 8h56q12 0 20 -8t8 -19.5t-8 -20t-20 -8.5zM84 132h-56q-12 0 -20 8.5t-8 20t8 19.5t20 8h56q12 0 20 -8
t8 -19.5t-8 -20t-20 -8.5zM84 216h-56q-12 0 -20 8t-8 20t8 20t20 8h56q12 0 20 -8t8 -20t-8 -20t-20 -8zM84 300h-56q-12 0 -20 8t-8 20t8 20t20 8h56q12 0 20 -8t8 -19.5t-8.5 -20t-19.5 -8.5zM364 20h56q11 0 19.5 -8t8.5 -19.5t-8.5 -20t-19.5 -8.5h-56q-12 0 -20 8.5
t-8 20t8 19.5t20 8z" />
    <glyph glyph-name="uniF16C" unicode="&#xf16c;" 
d="M364 216q-19 0 -36 8.5t-29 23.5l-134 -66q3 -12 3 -22t-3 -22l134 -66q12 15 29 23.5t36 8.5q35 0 59.5 -24.5t24.5 -59.5t-24.5 -59.5t-59.5 -24.5t-59.5 24.5t-24.5 59.5l-147 72q-22 -16 -49 -16q-35 0 -59.5 24.5t-24.5 59.5t24.5 59.5t59.5 24.5q27 0 49 -15
l147 71q0 35 24.5 59.5t59.5 24.5t59.5 -24.5t24.5 -59.5t-24.5 -59.5t-59.5 -24.5z" />
    <glyph glyph-name="uniF2D7" unicode="&#xf2d7;" 
d="M448 244q0 -38 -19 -70.5t-51 -51t-70 -18.5h-14q-42 -19 -42 -56q0 -45 35 -61q23 -4 36 -10t13 -13q0 -12 -33 -20t-79 -8t-79 8t-33 20q0 7 13 13t36 10q35 16 35 61q0 37 -42 56h-14q-38 0 -70 18.5t-51 51t-19 70.5q0 42 23 72.5t61 43.5v24h280v-24
q38 -13 61 -43.5t23 -72.5zM90 302q-34 -19 -34 -58q0 -34 23.5 -58t56.5 -26q-34 53 -46 142zM249 300l-25 56l-25 -56l-59 -8l43 -43l-11 -61l52 30l52 -30l-11 61l43 43zM358 302q-12 -89 -46 -142q33 2 56.5 26t23.5 58q0 39 -34 58z" />
    <glyph glyph-name="uniF2E4" unicode="&#xf2e4;" 
d="M413 198l-42 -41q-13 24 -35 44v183h56q12 0 20 -8.5t8 -19.5v-140q0 -11 -7 -18zM224 -64q-38 0 -70 19t-51 51t-19 70t19 70t51 51t70 19t70 -19t51 -51t19 -70t-19 -70t-51 -51t-70 -19zM259 119l-35 73l-35 -73l-83 -10l61 -56l-16 -79l73 39l73 -39l-16 79l61 56z
M280 384h28v-163q-14 8 -28 13v150zM140 384h28v-150q-15 -5 -28 -13v163zM77 157l-42 41q-7 8 -7 18v140q0 11 8.5 19.5t19.5 8.5h56v-183q-22 -20 -35 -44z" />
    <glyph glyph-name="uniF260" unicode="&#xf260;" 
d="M434 188h-182v56h182q6 0 10 -4t4 -10v-28q0 -6 -4 -10t-10 -4zM280 272h-140q-23 0 -39.5 16.5t-16.5 39.5t16.5 39.5t39.5 16.5q24 0 35.5 -6t14.5 -17.5t4 -24.5t8 -31t22 -33v19v18l2 17l3 16l4 14l7 11l10 10l13 5l17 2q23 0 39.5 -16.5t16.5 -39.5t-16.5 -39.5
t-39.5 -16.5zM139.5 356q-11.5 0 -19.5 -8t-8 -19.5t8 -20t19.5 -8.5t20 8.5t8.5 20t-8.5 19.5t-20 8zM279.5 356q-11.5 0 -19.5 -8t-8 -19.5t8.5 -20t19.5 -8.5t19.5 8.5t8.5 20t-8.5 19.5t-20 8zM196 188h-182q-6 0 -10 4t-4 10v28q0 6 4 10t10 4h182v-56zM196 -64h-140
q-12 0 -20 8.5t-8 19.5v196h168v-224zM420 160v-196q0 -11 -8 -19.5t-20 -8.5h-140v224h168z" />
    <glyph glyph-name="uniF0D2" unicode="&#xf0d2;" 
d="M223.5 -64q-45.5 0 -87 17.5t-71.5 47.5t-47.5 71.5t-17.5 87.5t17.5 87.5t47.5 71.5t71.5 47.5t87.5 17.5t87.5 -17.5t71.5 -47.5t47.5 -71.5t17.5 -87.5t-17.5 -87.5t-47.5 -71.5t-72 -47.5t-87.5 -17.5zM327 223q9 8 9 20t-8.5 20.5t-21 8.5t-20.5 -8l-62 -62l-63 62
q-8 8 -20 8t-20.5 -8.5t-8.5 -20.5t8 -20l62 -63l-62 -62q-8 -8 -8 -20.5t8.5 -21t20.5 -8.5t20 9l63 62l62 -62q8 -9 20.5 -9t21 8.5t8.5 21t-9 20.5l-62 62z" />
    <glyph glyph-name="uniF0D1" unicode="&#xf0d1;" 
d="M223.5 -64q-45.5 0 -87 17.5t-71.5 47.5t-47.5 71.5t-17.5 87.5t17.5 87.5t47.5 71.5t71.5 47.5t87.5 17.5t87.5 -17.5t71.5 -47.5t47.5 -71.5t17.5 -87.5t-17.5 -87.5t-47.5 -71.5t-72 -47.5t-87.5 -17.5zM336 188h-84v84q0 11 -8.5 19.5t-20 8.5t-19.5 -8.5t-8 -19.5
v-84h-84q-12 0 -20 -8.5t-8 -20t8 -19.5t20 -8h84v-84q0 -12 8 -20t19.5 -8t20 8t8.5 20v84h84q12 0 20 8t8 19.5t-8.5 20t-19.5 8.5z" />
    <glyph glyph-name="uniF0CE" unicode="&#xf0ce;" 
d="M420 300h-8h-376h-8q-11 0 -19.5 8t-8.5 19.5t8 20t20 8.5h140q0 11 8 19.5t20 8.5h56q12 0 20 -8.5t8 -19.5h140q11 0 19.5 -8.5t8.5 -20t-8.5 -19.5t-19.5 -8zM420 -8q0 -23 -16.5 -39.5t-39.5 -16.5h-280q-23 0 -39.5 16.5t-16.5 39.5v280h392v-280zM140 188
q0 11 -8.5 19.5t-20 8.5t-19.5 -8.5t-8 -19.5v-168q0 -12 8 -20t19.5 -8t20 8t8.5 20v168zM252 188q0 11 -8.5 19.5t-20 8.5t-19.5 -8.5t-8 -19.5v-168q0 -12 8 -20t19.5 -8t20 8t8.5 20v168zM364 188q0 11 -8.5 19.5t-20 8.5t-19.5 -8.5t-8 -19.5v-168q0 -12 8 -20t19.5 -8
t20 8t8.5 20v168z" />
    <glyph glyph-name="uniF035" unicode="&#xf035;" 
d="M424 328h-33l-54 -260q-2 -9 -9 -14.5t-15 -5.5h-240q-8 0 -15 5.5t-9 14.5l-43 165q-5 15 1 27t18 12l310 54l8 39q2 8 9 13.5t15 5.5h57q12 0 20 -8t8 -19.5t-8.5 -20t-19.5 -8.5zM129.5 20q17.5 0 30 -12t12.5 -30t-12.5 -30t-30 -12t-29.5 12t-12 30t12 30t29.5 12z
M269.5 20q17.5 0 30 -12t12.5 -30t-12.5 -30t-30 -12t-29.5 12t-12 30t12 30t29.5 12z" />
    <glyph glyph-name="uniF010" unicode="&#xf010;" 
d="M420 160h-392q-12 0 -20 8t-8 19.5t8 20t20 8.5h24q9 -13 23 -20.5t30 -7.5t30 7.5t23 20.5h132q9 -13 23 -20.5t30 -7.5t30 7.5t23 20.5h24q12 0 20 -8.5t8 -20t-8 -19.5t-20 -8zM352.5 218.5q-8.5 -4.5 -17.5 -2t-14 10.5l-66 122q-5 8 -2.5 17.5t11 14.5t17.5 2.5
t14 -11.5l66 -121q5 -9 2.5 -18.5t-11 -14zM127 227q-5 -8 -14 -10.5t-17.5 2t-11 14t2.5 18.5l66 121q5 9 14 11.5t17.5 -2.5t11 -14.5t-2.5 -17.5zM392 -36q-4 -18 -13 -23t-29 -5h-251q-19 0 -29 5t-14 23l-28 168h392z" />
    <glyph glyph-name="uni2407" unicode="&#x2407;" 
d="M420 -36h-148q-7 -13 -20 -20.5t-28 -7.5t-28 7.5t-20 20.5h-148q-12 0 -20 8.5t-8 19.5v28q23 0 39.5 33t16.5 79v56q0 62 40 108.5t100 56.5v3q0 12 8.5 20t19.5 8t19.5 -8t8.5 -20v-3q60 -10 100 -56.5t40 -108.5v-56q0 -46 16.5 -79t39.5 -33v-28q0 -11 -8 -19.5
t-20 -8.5z" />
    <glyph glyph-name="uni21B8" unicode="&#x21b8;" 
d="M439.5 141q-8.5 -9 -20.5 -9t-20 9l-7 6v-183q0 -11 -8 -19.5t-20 -8.5h-84v126q0 6 -4 10t-10 4h-84q-6 0 -10 -4t-4 -10v-126h-84q-12 0 -20 8.5t-8 19.5v183l-7 -6q-8 -9 -20 -9t-20.5 9t-8.5 21t8 20l195 194q8 9 21 8q13 1 21 -8l195 -194q8 -8 8 -20t-8.5 -21z" />
    <glyph glyph-name="uniF402" unicode="&#xf402;" 
d="M448 384zM224 384zM336 356q46 0 79 8t33 20v-112h-448v112q0 -12 33 -20t79 -8t79 8t33 20q0 -12 33 -20t79 -8zM224 -64q-41 12 -73.5 28.5t-55 34.5t-39 42.5t-26 45.5t-16 51t-9 51.5t-5.5 54.5h448q-3 -33 -5.5 -54.5t-9 -51.5t-16 -51t-26.5 -45.5t-39 -42.5
t-54.5 -34.5t-73.5 -28.5z" />
    <glyph glyph-name="uniF395" unicode="&#xf395;" 
d="M420 160h-392q-12 0 -20 8t-8 19.5t8 20t20 8.5h24q9 -13 23 -20.5t30 -7.5t30 7.5t23 20.5h132q9 -13 23 -20.5t30 -7.5t30 7.5t23 20.5h24q12 0 20 -8.5t8 -20t-8.5 -19.5t-19.5 -8zM352.5 218.5q-8.5 -4.5 -17.5 -2t-14 10.5l-66 122q-5 8 -2.5 17.5t11 14.5t17.5 2.5
t14 -11.5l66 -121q5 -9 2.5 -18.5t-11 -14zM127 227q-5 -8 -14 -10.5t-17.5 2t-11 14t2.5 18.5l66 121q5 9 14 11.5t17.5 -2.5t11 -14.5t-2.5 -17.5zM392 -36q-4 -18 -13 -23t-29 -5h-251q-19 0 -29 5t-14 23l-28 168h392zM322 48h-112q-6 0 -10 -4t-4 -10t4 -10t10 -4h112
q6 0 10 4t4 10t-4 10t-10 4z" />
    <glyph glyph-name="uniF394" unicode="&#xf394;" 
d="M420 160h-392q-11 0 -19.5 8t-8.5 19.5t8 20t20 8.5h24q9 -13 23 -20.5t30 -7.5t30 7.5t22 20.5h133q9 -13 23 -20.5t30 -7.5t30 7.5t22 20.5h25q12 0 20 -8.5t8 -20t-8.5 -19.5t-19.5 -8zM352.5 218.5q-8.5 -4.5 -17.5 -2t-14 10.5l-66 122q-5 8 -2.5 17.5t11 14.5
t17.5 2.5t14 -11.5l66 -121q5 -9 2.5 -18.5t-11 -14zM127 227q-5 -8 -14 -10.5t-17.5 2t-11 14t2.5 18.5l66 121q5 9 14 11.5t17.5 -2.5t11 -14.5t-2.5 -17.5zM392 -36q-4 -18 -13 -23t-29 -5h-251q-19 0 -29 5t-14 23l-28 168h392zM322 48h-42v42q0 6 -4 10t-10 4t-10 -4
t-4 -10v-42h-42q-6 0 -10 -4t-4 -10t4 -10t10 -4h42v-42q0 -6 4 -10t10 -4t10 4t4 10v42h42q6 0 10 4t4 10t-4 10t-10 4z" />
    <glyph glyph-name="uniF028" unicode="&#xf028;" 
d="M224 132l-196 196h392zM3 7q-3 6 -3 13v280q0 7 3 13l153 -153zM207 109q3 -2 7 -3.5t7 -1.5h3q11 0 17 5l31 31l148 -148h-392l148 148zM445 313q3 -6 3 -13v-280q0 -7 -3 -13l-153 153z" />
    <glyph glyph-name="uniF113" unicode="&#xf113;" 
d="M420 132h-224q-11 0 -19.5 8t-8.5 19.5t8.5 20t19.5 8.5h224q11 0 19.5 -8.5t8.5 -20t-8.5 -19.5t-19.5 -8zM420 300h-224q-11 0 -19.5 8t-8.5 19.5t8.5 20t19.5 8.5h224q11 0 19.5 -8.5t8.5 -20t-8.5 -19.5t-19.5 -8zM84 -64h-56q-12 0 -20 8.5t-8 19.5v56q0 11 8 19.5
t20 8.5h56q11 0 19.5 -8.5t8.5 -19.5v-56q0 -12 -8.5 -20t-19.5 -8zM84 104h-56q-12 0 -20 8t-8 20v56q0 11 8 19.5t20 8.5h56q11 0 19.5 -8.5t8.5 -19.5v-56q0 -12 -8.5 -20t-19.5 -8zM84 272h-56q-12 0 -20 8t-8 20v56q0 11 8 19.5t20 8.5h56q11 0 19.5 -8.5t8.5 -19.5
v-56q0 -12 -8.5 -20t-19.5 -8zM196 20h224q11 0 19.5 -8.5t8.5 -20t-8.5 -19.5t-19.5 -8h-224q-12 0 -20 8t-8 19.5t8 20t20 8.5z" />
    <glyph glyph-name="uniF112" unicode="&#xf112;" 
d="M420 -64h-140q-12 0 -20 8t-8 20v140q0 12 8 20t20 8h140q11 0 19.5 -8t8.5 -20v-140q0 -12 -8.5 -20t-19.5 -8zM392 62q0 6 -4 10t-10 4h-56q-6 0 -10 -4t-4 -10v-56q0 -6 4 -10t10 -4h56q6 0 10 4t4 10v56zM420 188h-140q-12 0 -20 8.5t-8 19.5v140q0 12 8 20t20 8h140
q11 0 19.5 -8t8.5 -20v-140q0 -11 -8.5 -19.5t-19.5 -8.5zM392 314q0 6 -4 10t-10 4h-56q-6 0 -10 -4t-4 -10v-56q0 -6 4 -10t10 -4h56q6 0 10 4t4 10v56zM168 -64h-140q-11 0 -19.5 8t-8.5 20v140q0 12 8.5 20t19.5 8h140q12 0 20 -8t8 -20v-140q0 -12 -8.5 -20t-19.5 -8z
M140 62q0 6 -4 10t-10 4h-56q-6 0 -10 -4t-4 -10v-56q0 -6 4 -10t10 -4h56q6 0 10 4t4 10v56zM168 188h-140q-11 0 -19.5 8.5t-8.5 19.5v140q0 12 8.5 20t19.5 8h140q12 0 20 -8t8 -20v-140q0 -11 -8.5 -19.5t-19.5 -8.5zM140 314q0 6 -4 10t-10 4h-56q-6 0 -10 -4t-4 -10
v-56q0 -6 4 -10t10 -4h56q6 0 10 4t4 10v56z" />
    <glyph glyph-name="uniF111" unicode="&#xf111;" 
d="M420 -64h-224q-12 0 -20 8.5t-8 19.5v56q0 11 8 19.5t20 8.5h224q11 0 19.5 -8.5t8.5 -19.5v-56q0 -12 -8.5 -20t-19.5 -8zM420 104h-224q-12 0 -20 8t-8 20v56q0 12 8 20t20 8h224q11 0 19.5 -8t8.5 -20v-56q0 -12 -8.5 -20t-19.5 -8zM420 272h-224q-12 0 -20 8.5
t-8 19.5v56q0 12 8 20t20 8h224q11 0 19.5 -8t8.5 -20v-56q0 -11 -8.5 -19.5t-19.5 -8.5zM84 -64h-56q-11 0 -19.5 8.5t-8.5 19.5v56q0 11 8.5 19.5t19.5 8.5h56q11 0 19.5 -8.5t8.5 -19.5v-56q0 -12 -8 -20t-20 -8zM84 104h-56q-11 0 -19.5 8t-8.5 20v56q0 12 8.5 20
t19.5 8h56q11 0 19.5 -8t8.5 -20v-56q0 -12 -8 -20t-20 -8zM84 272h-56q-11 0 -19.5 8.5t-8.5 19.5v56q0 12 8.5 20t19.5 8h56q11 0 19.5 -8t8.5 -20v-56q0 -11 -8 -19.5t-20 -8.5z" />
    <glyph glyph-name="uniF110" unicode="&#xf110;" 
d="M420 -64h-56q-11 0 -19.5 8.5t-8.5 19.5v56q0 11 8.5 19.5t19.5 8.5h56q11 0 19.5 -8.5t8.5 -19.5v-56q0 -12 -8 -20t-20 -8zM420 104h-56q-11 0 -19.5 8t-8.5 20v56q0 12 8.5 20t19.5 8h56q11 0 19.5 -8t8.5 -20v-56q0 -12 -8 -20t-20 -8zM420 272h-56q-11 0 -19.5 8.5
t-8.5 19.5v56q0 12 8.5 20t19.5 8h56q11 0 19.5 -8t8.5 -20v-56q0 -11 -8 -19.5t-20 -8.5zM252 -64h-56q-12 0 -20 8.5t-8 19.5v56q0 11 8.5 19.5t19.5 8.5h56q12 0 20 -8.5t8 -19.5v-56q0 -12 -8 -20t-20 -8zM252 104h-56q-12 0 -20 8t-8 20v56q0 12 8.5 20t19.5 8h56
q12 0 20 -8t8 -20v-56q0 -12 -8 -20t-20 -8zM252 272h-56q-12 0 -20 8.5t-8 19.5v56q0 12 8.5 20t19.5 8h56q12 0 20 -8t8 -20v-56q0 -11 -8 -19.5t-20 -8.5zM84 -64h-56q-11 0 -19.5 8.5t-8.5 19.5v56q0 11 8.5 19.5t19.5 8.5h56q11 0 19.5 -8.5t8.5 -19.5v-56
q0 -12 -8 -20t-20 -8zM84 104h-56q-11 0 -19.5 8t-8.5 20v56q0 12 8.5 20t19.5 8h56q11 0 19.5 -8t8.5 -20v-56q0 -12 -8 -20t-20 -8zM84 272h-56q-11 0 -19.5 8.5t-8.5 19.5v56q0 12 8.5 20t19.5 8h56q11 0 19.5 -8t8.5 -20v-56q0 -11 -8 -19.5t-20 -8.5z" />
    <glyph glyph-name="uniF13B" unicode="&#xf13b;" 
d="M448 181l-88 -98l13 -130q-2 -8 -9 -13t-15 -4l-122 52l-122 -52q-9 -1 -16 4t-9 13l13 130l-88 98q-4 8 -1 16t10 12l130 28l68 113q6 6 14.5 6t14.5 -6l68 -113l130 -28q8 -4 10.5 -12t-1.5 -16zM372 184l-89 19l-46 79q-5 4 -10.5 4t-10.5 -4l-46 -79l-90 -19
q-5 -3 -7 -9t1 -11l62 -70l-7 -88q1 -6 4.5 -10.5t8.5 -3.5l84 37l84 -37q6 -1 9.5 3.5t4.5 10.5l-7 88l62 70q3 5 1 11t-8 9z" />
    <glyph glyph-name="uniF13A" unicode="&#xf13a;" 
d="M448 181l-88 -98l13 -130q-2 -8 -9 -13t-15 -4l-122 52l-122 -52q-9 -1 -16 4t-9 14l13 129l-88 98q-4 8 -1 16.5t10 11.5l130 28l68 113q6 6 14.5 6t14.5 -6l68 -113l130 -28q8 -4 10.5 -12t-1.5 -16z" />
    <glyph glyph-name="uniF148" unicode="&#xf148;" 
d="M392 -36v-14q0 -6 -4 -10t-10 -4h-28q-6 0 -10 4t-4 10v14h-224v-14q0 -6 -4 -10t-10 -4h-28q-6 0 -10 4t-4 10v14q-23 0 -39.5 16.5t-16.5 39.5v28q0 31 16 63.5t42.5 54.5t53.5 22q11 0 19.5 8t8.5 20v28q0 11 8 19.5t20 8.5t20 -8.5t8 -19.5h56q0 11 8 19.5t20 8.5
t20 -8.5t8 -19.5v-28q0 -12 8 -20t20 -8q27 0 53.5 -22t42.5 -54.5t16 -63.5v-28q0 -23 -16.5 -39.5t-39.5 -16.5zM224 160q-35 0 -59.5 -24.5t-24.5 -59.5t24.5 -59.5t59.5 -24.5t59.5 24.5t24.5 59.5t-24.5 59.5t-59.5 24.5zM224 20q-23 0 -39.5 16.5t-16.5 39.5
t16.5 39.5t39.5 16.5t39.5 -16.5t16.5 -39.5t-16.5 -39.5t-39.5 -16.5zM392 216h-14h-13l-12 2l-8 2l-7 4l-2 6v45q-11 10 -44 17.5t-68 7.5t-68 -7.5t-44 -17.5v-45q0 -3 -2 -5.5t-6.5 -4t-8.5 -2.5t-12 -1.5t-13 -0.5h-14h-15h-13l-12 2l-8 2l-6 4l-2 6v38q0 27 30.5 47.5
t80.5 30.5t113 10t113 -10t80.5 -30.5t30.5 -47.5v-38q0 -3 -2 -5.5t-6 -4t-8 -2.5t-12 -1.5t-13 -0.5h-15z" />
    <glyph glyph-name="uniF17E" unicode="&#xf17e;" 
d="M224 -64q-61 0 -112.5 30t-81.5 81.5t-30 112.5t30 112.5t81.5 81.5t112.5 30t112.5 -30t81.5 -81.5t30 -112.5t-30 -112.5t-81.5 -81.5t-112.5 -30zM224 328q-70 0 -119 -49t-49 -119t49 -119t119 -49t119 49t49 119t-49 119t-119 49zM168 258l168 -98l-168 -98v196z
" />
    <glyph glyph-name="uniF1A2" unicode="&#xf1a2;" 
d="M420 90q-12 0 -20 8.5t-8 19.5v42q0 46 -22.5 84.5t-61 61t-84.5 22.5t-84.5 -22.5t-61 -61t-22.5 -84.5v-42q0 -11 -8 -19.5t-19.5 -8.5t-20 8.5t-8.5 19.5v42q0 46 17.5 87.5t47.5 71.5t71.5 47.5t87.5 17.5t87.5 -17.5t71.5 -47.5t47.5 -71.5t17.5 -87.5v-42
q0 -11 -8 -19.5t-20 -8.5zM224 300q38 0 70 -19t51 -51t19 -70v-1v-1v-1v-1v-1v-1v-1v-1v-1v-1v-1v-1v-1v-1v-1v-1v-1v-1v-1v-1v-1v-1v-1v-1v-1v-3q0 -11 -8 -19.5t-19.5 -8.5t-20 8.5t-8.5 19.5v28q0 35 -24.5 59.5t-59.5 24.5t-59.5 -24.5t-24.5 -59.5v-28q0 -11 -8 -19.5
t-19.5 -8.5t-20 8.5t-8.5 19.5v0v0v0v1v1v1v0v1v1v1v1v0v1v1v1v1v0v1v1v1v0v1v1v1v1v0v1v1v1v0v1v1v1v4q0 38 19 70t51 51t70 19zM224 216q23 0 39.5 -16.5t16.5 -39.5t-16.5 -39.5t-39.5 -16.5t-39.5 16.5t-16.5 39.5t16.5 39.5t39.5 16.5zM196 76h56q12 0 20 -8t8 -20
l-28 -84q0 -11 -8 -19.5t-19.5 -8.5t-20 8.5t-8.5 19.5l-28 84q0 12 8 20t20 8z" />
    <glyph glyph-name="uniF1A4" unicode="&#xf1a4;" 
d="M392 -64h-336q-23 0 -39.5 16.5t-16.5 39.5v196q0 23 16.5 39.5t39.5 16.5h152l-86 86q-5 -2 -10 -2q-11 0 -19.5 8.5t-8.5 20t8.5 19.5t20 8t19.5 -8t8 -20q0 -5 -2 -10l86 -86l86 86q-2 5 -2 10q0 12 8.5 20t20 8t19.5 -8t8 -19.5t-8 -20t-20 -8.5q-5 0 -10 2l-86 -86
h152q23 0 39.5 -16.5t16.5 -39.5v-196q0 -23 -16.5 -39.5t-39.5 -16.5zM308 112q0 72 -28 76h-224q-8 -1 -14 -7.5t-8.5 -13t-4 -17.5t-1.5 -17v-16v-5v-44q0 -11 1 -21t3.5 -23t8.5 -22t15 -10h224q7 1 12 5t8 11.5t4.5 14.5t2.5 17t1 14.5v13.5v44zM406 188h-56
q-6 0 -10 -4t-4 -10t4 -10t10 -4h56q6 0 10 4t4 10t-4 10t-10 4zM406 132h-56q-6 0 -10 -4t-4 -10t4 -10t10 -4h56q6 0 10 4t4 10t-4 10t-10 4zM406 76h-56q-6 0 -10 -4t-4 -10t4 -10t10 -4h56q6 0 10 4t4 10t-4 10t-10 4zM406 20h-56q-6 0 -10 -4t-4 -10t4 -10t10 -4h56
q6 0 10 4t4 10t-4 10t-10 4z" />
    <glyph glyph-name="uniF17F" unicode="&#xf17f;" 
d="M224 -64q-61 0 -112.5 30t-81.5 81.5t-30 112.5q0 46 17.5 87.5t47.5 71.5t71.5 47.5t87.5 17.5t87.5 -17.5t71.5 -47.5t47.5 -71.5t17.5 -87.5q0 -61 -30 -112.5t-81.5 -81.5t-112.5 -30zM308 -8q23 0 39.5 16.5t16.5 39.5t-16.5 39.5t-39.5 16.5t-39.5 -16.5
t-16.5 -39.5t16.5 -39.5t39.5 -16.5zM223.5 132q11.5 0 20 8.5t8.5 19.5t-8.5 19.5t-19.5 8.5t-19.5 -8.5t-8.5 -20t8 -19.5t19.5 -8zM140 -8q23 0 39.5 16.5t16.5 39.5t-16.5 39.5t-39.5 16.5t-39.5 -16.5t-16.5 -39.5t16.5 -39.5t39.5 -16.5zM98 258q-23 0 -39.5 -16.5
t-16.5 -39.5t16.5 -39.5t39.5 -16.5t39.5 16.5t16.5 39.5t-16.5 39.5t-39.5 16.5zM224 356q-23 0 -39.5 -16.5t-16.5 -39.5t16.5 -39.5t39.5 -16.5t39.5 16.5t16.5 39.5t-16.5 39.5t-39.5 16.5zM350 258q-23 0 -39.5 -16.5t-16.5 -39.5t16.5 -39.5t39.5 -16.5t39.5 16.5
t16.5 39.5t-16.5 39.5t-39.5 16.5z" />
    <glyph glyph-name="uniF19C" unicode="&#xf19c;" 
d="M448 20v-4v-9.5t-1.5 -7.5t-4.5 -5.5t-8 -1.5l-98 65v-65q0 -11 -8.5 -19.5t-19.5 -8.5h-252q-12 0 -20 8t-8 20v168q0 11 8 19.5t20 8.5h28h196h28q11 0 19.5 -8.5t8.5 -19.5v-65l98 65q5 0 8 -1.5t4.5 -5.5t1.5 -7.5v-10.5v-3v-112zM0 272q0 35 24.5 59.5t59.5 24.5
t59.5 -24.5t24.5 -59.5t-24.5 -59.5t-59.5 -24.5t-59.5 24.5t-24.5 59.5zM196 272q0 35 24.5 59.5t59.5 24.5t59.5 -24.5t24.5 -59.5t-24.5 -59.5t-59.5 -24.5t-59.5 24.5t-24.5 59.5z" />
    <glyph glyph-name="uniF19B" unicode="&#xf19b;" 
d="M392 -64h-336q-23 0 -39.5 16.5t-16.5 39.5v224q0 23 16.5 39.5t39.5 16.5h41l18 41q5 19 24 31t43 12h84q24 0 43 -12t24 -31l18 -41h41q23 0 39.5 -16.5t16.5 -39.5v-224q0 -23 -16.5 -39.5t-39.5 -16.5zM224 244q-38 0 -70 -19t-51 -51t-19 -70t19 -70t51 -51t70 -19
t70 19t51 51t19 70t-19 70t-51 51t-70 19zM224 -8q-46 0 -79 33t-33 79t33 79t79 33t79 -33t33 -79t-33 -79t-79 -33zM224 188q-35 0 -59.5 -24.5t-24.5 -59.5t24.5 -59.5t59.5 -24.5t59.5 24.5t24.5 59.5t-24.5 59.5t-59.5 24.5z" />
    <glyph glyph-name="uniF19D" unicode="&#xf19d;" 
d="M420 -64v14q0 6 -4 10t-10 4h-28q-6 0 -10 -4t-4 -10v-14h-280v14q0 6 -4 10t-10 4h-28q-6 0 -10 -4t-4 -10v-14q-12 0 -20 8.5t-8 19.5v364q0 12 8 20t20 8v-14q0 -6 4 -10t10 -4h28q6 0 10 4t4 10v14h280v-14q0 -6 4 -10t10 -4h28q6 0 10 4t4 10v14q11 0 19.5 -8
t8.5 -20v-364q0 -11 -8.5 -19.5t-19.5 -8.5zM84 286q0 6 -4 10t-10 4h-28q-6 0 -10 -4t-4 -10v-28q0 -6 4 -10t10 -4h28q6 0 10 4t4 10v28zM84 202q0 6 -4 10t-10 4h-28q-6 0 -10 -4t-4 -10v-28q0 -6 4 -10t10 -4h28q6 0 10 4t4 10v28zM84 118q0 6 -4 10t-10 4h-28
q-6 0 -10 -4t-4 -10v-28q0 -6 4 -10t10 -4h28q6 0 10 4t4 10v28zM84 34q0 6 -4 10t-10 4h-28q-6 0 -10 -4t-4 -10v-28q0 -6 4 -10t10 -4h28q6 0 10 4t4 10v28zM420 286q0 6 -4 10t-10 4h-28q-6 0 -10 -4t-4 -10v-28q0 -6 4 -10t10 -4h28q6 0 10 4t4 10v28zM420 202
q0 6 -4 10t-10 4h-28q-6 0 -10 -4t-4 -10v-28q0 -6 4 -10t10 -4h28q6 0 10 4t4 10v28zM420 118q0 6 -4 10t-10 4h-28q-6 0 -10 -4t-4 -10v-28q0 -6 4 -10t10 -4h28q6 0 10 4t4 10v28zM420 34q0 6 -4 10t-10 4h-28q-6 0 -10 -4t-4 -10v-28q0 -6 4 -10t10 -4h28q6 0 10 4t4 10
v28z" />
    <glyph glyph-name="uniF271" unicode="&#xf271;" 
d="M336 -64h-98h-98q-56 2 -84 8t-28 20q0 9 9 35.5t19 55.5t19 67t9 66q0 84 154 84t154 -84q0 -28 9 -66t19 -67t19 -55.5t9 -35.5q0 -14 -28 -20t-84 -8zM238 174q30 0 50 -7t20 -20v-1q0 -5 4 -9.5t10 -4.5t10 4.5t4 9.5q0 52 -84 56v14q0 6 -4 10t-10 4t-10 -4t-4 -10
v-14q-84 -4 -84 -56q0 -9 3 -16t9 -11.5t13.5 -7.5t20 -4.5t23.5 -2t29 -0.5q30 0 50 -7t20 -20.5t-20 -21t-50 -7.5t-50 7t-20 21q0 6 -4 10t-10 4t-10 -4t-4 -10q0 -51 84 -55v-15q0 -5 4 -9.5t10 -4.5t10 4.5t4 9.5v15q84 4 84 55q0 56 -98 56h-15h-15h-13t-11.5 1
t-8.5 2.5t-5.5 4t-1.5 6.5q0 14 20 21t50 7zM238 300q-26 0 -48 -2q-9 18 -15.5 35.5t-6.5 22.5q0 7 11 14q11 -6 27 -10t32 -4t32 4t27 10q11 -7 11 -14q0 -5 -6.5 -22.5t-15.5 -35.5q-22 2 -48 2z" />
    <glyph glyph-name="uniF338" unicode="&#xf338;" 
d="M336 160q-28 -29 -42 -53t-14 -45q0 -6 -4 -10t-10 -4h-84q-6 0 -10 4t-4 10q0 21 -14 45t-42 53q-28 38 -28 84q0 38 19 70t51 51t70 19t70 -19t51 -51t19 -70q0 -46 -28 -84zM182 20h84q6 0 10 -4t4 -10t-4 -10t-10 -4h-84q-6 0 -10 4t-4 10t4 10t10 4zM224 -64
q-23 0 -39.5 8.5t-16.5 19.5h112q0 -11 -16.5 -19.5t-39.5 -8.5z" />
    <glyph glyph-name="uniE054" unicode="&#xe054;" 
d="M358 232q-40 29 -68.5 59.5t-40.5 49t-25 43.5v0q-13 -25 -25 -43.5t-40.5 -49t-68.5 -59.5q-41 -31 -55.5 -67.5t-2 -64.5t36.5 -47.5t61 -19.5t71 24q-5 -36 -22 -64t-39 -40v-17h84h84v17q-22 12 -39 39.5t-22 64.5q34 -24 71 -24t61 19.5t36.5 47.5t-2 64.5
t-55.5 67.5z" />
    <glyph glyph-name="uniE055" unicode="&#xe055;" 
d="M344 212q-39 0 -65 -28q-11 -11 -33 -24q5 17 17 36.5t23 29.5q28 27 28 66q0 38 -26.5 65t-63.5 27t-63.5 -27t-26.5 -65q0 -39 28 -66q11 -10 23 -29.5t17 -36.5q-22 13 -33 24q-26 28 -65 28q-38 0 -64.5 -26.5t-26.5 -64.5t26.5 -65t64.5 -27t65 29q12 12 35 25
q-1 -45 -19.5 -80t-44.5 -50v-17h84h84v17q-26 15 -44.5 50t-19.5 80q23 -13 35 -25q27 -29 65 -29t64.5 27t26.5 65t-26.5 64.5t-64.5 26.5z" />
    <glyph glyph-name="uniF2E6" unicode="&#xf2e6;" 
d="M448 356l-96 -167q-34 38 -84 51l67 116q6 12 19 20t24 8h57q12 0 16 -8t-3 -20zM368 76q0 -38 -18.5 -70t-51 -51t-70.5 -19t-70.5 19t-51 51t-18.5 70t18.5 70.5t51 51t70.5 18.5t70.5 -18.5t51 -51t18.5 -70.5zM270 20h-14v84q0 24 -16.5 40t-39.5 16v0q-6 0 -10 -4
t-4 -10t4 -10t10 -4q12 0 20 -8t8 -20v-84h-14q-6 0 -10 -4t-4 -10t4 -10t10 -4h56q6 0 10 4t4 10t-4 10t-10 4zM8 356q-7 12 -3 20t16 8h56q12 0 25 -8t19 -20l67 -116q-50 -13 -84 -51z" />
    <glyph glyph-name="uniE056" unicode="&#xe056;" 
d="M308 104q-10 -10 -19.5 -25.5t-17 -23t-19.5 -7.5q-28 0 -84 56t-56 84q0 12 7.5 19.5t23 17t25.5 19.5q19 19 -20.5 65.5t-63.5 46.5q-12 0 -33 -21t-36 -42l-15 -21q0 -42 35.5 -112.5t76.5 -111.5t111.5 -76.5t112.5 -35.5q9 6 23 16t37.5 33t23.5 35q0 24 -46.5 63.5
t-65.5 20.5z" />
    <glyph glyph-name="uniE057" unicode="&#xe057;" 
d="M272 77q-4 0 -6.5 7t-2.5 14v7q28 28 34 66q13 0 18 21.5t-7 32.5q0 1 0.5 9.5t1 15.5t-0.5 18.5t-3.5 20.5t-9 19.5t-15.5 17.5t-23.5 11.5t-33.5 4.5t-33.5 -4.5t-23.5 -11.5t-15.5 -17.5t-9 -19.5t-3.5 -20.5t-0.5 -18.5t1 -15.5t0.5 -9.5q-12 -11 -7 -32.5t18 -21.5
q3 -17 11.5 -33.5t15.5 -24.5l7 -8q0 -27 -9 -28q-19 -3 -52.5 -18.5t-64.5 -42t-31 -52.5h196h196q0 26 -31 52.5t-64.5 42t-52.5 18.5z" />
    <glyph glyph-name="uniF133" unicode="&#xf133;" 
d="M448 -35q0 -5 -6 -9.5t-18 -7t-25 -5t-33 -4t-35 -2t-38.5 -1t-35.5 -0.5h-33h-33h-35l-39 2l-35 1l-33 4l-25 5l-18 8l-6 9q1 39 48 68.5t120 38.5v15q-23 10 -39.5 28.5t-26 43t-14 53t-4.5 60.5q0 28 11 50t30 35.5t44 20t55 6.5t55 -6.5t44 -20t30 -35.5t11 -50
q0 -153 -84 -186v-13q73 -10 120 -39.5t48 -68.5z" />
    <glyph glyph-name="uniE058" unicode="&#xe058;" 
d="M112 244q0 -46 33 -79t79 -33t79 33t33 79t-33 79t-79 33t-79 -33t-33 -79zM336 104h-224q-46 0 -79 -33t-33 -79v-28h4h440h4v28q0 46 -33 79t-79 33z" />
    <glyph glyph-name="uniF488" unicode="&#xf488;" 
d="M350 132l-190 -187q-9 -9 -22 -9t-23 9l-22 22q-9 10 -9 23t9 22l148 148l-148 148q-9 9 -9 22t9 23l22 22q10 9 23 9t22 -9l190 -187q14 -14 14 -28t-14 -28z" />
    <glyph glyph-name="uniF489" unicode="&#xf489;" 
d="M98 132l190 -187q9 -9 22 -9t23 9l22 22q9 10 9 23t-9 22l-148 148l148 148q9 9 9 22t-9 23l-22 22q-10 9 -23 9t-22 -9l-190 -187q-14 -14 -14 -28t14 -28z" />
    <glyph glyph-name="uniF0ED" unicode="&#xf0ed;" horiz-adv-x="480" 
d="M320 152q0 4 -2 6t-6 2h-56v88q0 3 -2.5 5.5t-5.5 2.5h-48q-3 0 -5.5 -2.5t-2.5 -5.5v-88h-56q-3 0 -5.5 -2.5t-2.5 -5.5q0 -4 2 -6l88 -88q2 -2 6 -2t6 2l88 88q2 3 2 6zM480 96q0 -40 -28 -68t-68 -28h-272q-46 0 -79 33t-33 79q0 32 17.5 60t46.5 41v11
q0 53 37.5 90.5t90.5 37.5q39 0 71.5 -22t46.5 -58q18 16 42 16q26 0 45 -19t19 -45q0 -19 -10 -34q32 -8 53 -34t21 -60z" />
    <glyph glyph-name="uniF063" unicode="&#xf063;" horiz-adv-x="416" 
d="M403 176q0 -13 -9 -22l-163 -164q-10 -9 -23 -9t-22 9l-163 164q-10 8 -10 22q0 13 10 23l18 19q10 9 23 9t22 -9l74 -74v176q0 13 9.5 22.5t22.5 9.5h32q13 0 22.5 -9.5t9.5 -22.5v-176l74 74q9 9 22 9t23 -9l19 -19q9 -10 9 -23z" />
  </font>
</defs>
</svg>
